<svg width="1167" height="299" viewBox="0 0 1167 299" fill="none" xmlns="http://www.w3.org/2000/svg">
<path d="M452.69 165.625C456.448 144.296 459.6 123.33 474.072 106.524C494.141 83.2179 519.484 75.2993 549.058 82.5399C569.226 87.4778 580.232 101.958 584.15 121.808C591.013 156.579 568.49 196.045 535.306 207.711C514.959 214.865 495.664 214.473 478.593 198.121C474.834 205.229 474.591 212.663 473.124 219.671C469.507 236.96 466.273 254.335 463.266 271.742C462.209 277.864 459.822 280.83 453.183 280.012C446.143 279.145 438.957 281.038 430.526 279.449C437.914 241.448 445.231 203.815 452.69 165.625ZM505.411 182.648C517.508 185.246 528.104 182.094 537.179 173.937C547.716 164.467 553.198 152.315 553.868 138.348C554.902 116.788 538.364 104.025 517.543 109.803C500.221 114.61 486.104 134.813 486.153 154.726C486.187 168.74 491.994 177.518 505.411 182.648Z" fill="white"/>
<path d="M1126.48 183.301C1108.37 204.698 1085.98 214.733 1058.33 211.189C1031.17 207.709 1013.27 186.908 1013.74 159.284C1014.16 134.277 1023.22 112.832 1042.54 96.5035C1059.68 82.0089 1079.33 76.6449 1101.48 82.346C1109 84.2811 1115.03 88.9372 1121.58 94.0434C1125.65 79.8067 1127.47 65.866 1130.37 52.1651C1132.17 43.6324 1133.85 35.069 1135.38 26.4832C1136 22.9744 1137.7 21.533 1141.27 21.6261C1147.54 21.7897 1153.84 21.8284 1160.11 21.6076C1165.26 21.4266 1166.78 23.2876 1165.76 28.4563C1160.69 54.1431 1155.92 79.8886 1150.97 105.599C1148.14 120.319 1145.14 135.006 1142.27 149.718C1139.85 162.079 1134.42 173.011 1126.48 183.301ZM1055.76 124.131C1050.96 130.491 1047.84 137.556 1046.16 145.375C1042.98 160.229 1047.4 173.365 1058.03 179.784C1069.31 186.594 1084.76 184.405 1096.01 174.44C1105.87 165.701 1111.28 154.611 1112.75 141.683C1115.26 119.65 1100.96 105.378 1079.93 108.884C1070.21 110.504 1062.66 116.02 1055.76 124.131Z" fill="url(#paint0_linear_4647_142)"/>
<path d="M621.195 206.232C597.122 192.143 588.021 168.792 594.777 139.369C602.564 105.46 630.885 81.1514 665.653 80.0465C693.508 79.1612 717.504 93.058 721.214 124.785C721.926 130.872 720.186 133.111 714.572 134.683C686.972 142.41 659.474 150.503 631.944 158.482C629.405 159.218 626.672 159.494 624.577 161.273C625.81 177.514 642.433 188.305 659.639 183.938C670.347 181.221 678.858 175.2 683.964 165.281C686.138 161.057 688.994 159.415 693.49 159.488C701.028 159.609 708.569 159.521 716.22 159.521C712.28 190.594 667.025 226.056 621.195 206.232ZM628.689 135.11C635.056 134.972 640.831 132.325 646.829 130.697C660.108 127.095 673.299 123.166 686.555 119.363C683.607 110.946 673.866 105.593 663.554 106.188C646.388 107.179 631.095 119.415 628.689 135.11Z" fill="white"/>
<path d="M398.523 80.7681C425.926 83.5667 443.051 102.893 444.688 130.176C446.944 167.766 420.028 202.883 384.009 210.513C352.722 217.14 323.931 203.093 316.387 175.958C311.672 158.999 313.503 142.165 320.933 126.176C334.044 97.9653 355.941 82.0922 387.25 79.9605C390.778 79.7204 394.371 80.4341 398.523 80.7681ZM346.401 143.499C346.143 145.5 345.952 147.511 345.617 149.498C341.645 173.039 361.047 189.809 383.356 181.525C400.98 174.981 410.163 161.064 412.638 142.896C414.323 130.523 412.474 118.616 400.262 111.912C388.216 105.3 376.353 107.964 365.394 115.289C355.615 121.824 350.171 131.482 346.401 143.499Z" fill="white"/>
<path d="M765.483 133.424C760.981 156.601 756.505 179.213 752.377 201.888C751.412 207.193 748.967 208.972 743.774 208.597C738.416 208.21 732.999 208.309 727.626 208.564C722.255 208.818 720.327 206.907 721.441 201.417C726.203 177.956 730.77 154.456 735.389 130.966C738.109 117.137 740.98 103.334 743.391 89.4519C744.249 84.5062 746.442 82.5591 751.388 82.5964C767.51 82.7182 773.98 80.7053 799.647 80.2521C821.342 77.683 840.182 94.7117 843.266 116.445C845.349 131.116 841.24 144.9 838.866 158.945C836.481 173.062 833.389 187.058 830.851 201.151C829.921 206.311 827.975 209.144 822.087 208.593C816.524 208.072 810.872 208.308 805.268 208.492C800.097 208.663 798.704 206.772 799.758 201.588C803.991 180.757 807.858 159.852 811.848 138.972C812.142 137.437 812.451 135.892 812.568 134.338C813.724 119.049 808.605 110.574 797.128 108.694C782.401 106.283 770.279 113.799 766.685 127.609C766.235 129.34 765.981 131.123 765.483 133.424Z" fill="white"/>
<path d="M907.718 149.263C917.689 129.617 927.739 110.565 936.981 91.1285C940.188 84.3837 944.186 81.827 951.464 82.4447C958.489 83.0409 965.605 82.5738 972.106 82.5738C973.581 85.7913 972.375 87.3065 971.56 88.8266C951.315 126.571 930.954 164.254 910.889 202.094C908.287 207.001 905.167 208.934 899.784 208.562C894.425 208.192 888.988 208.11 883.645 208.583C877.988 209.084 875.627 206.777 874.651 201.391C870.262 177.173 865.593 153.005 861.083 128.809C858.622 115.61 856.491 102.345 853.77 89.2014C852.709 84.0818 854.64 82.6563 859.143 82.6667C865.201 82.6807 871.267 82.8304 877.312 82.5479C883.173 82.2741 885.516 84.6562 886.326 90.5873C889.711 115.394 893.595 140.132 897.329 164.89C897.421 165.502 897.886 166.058 898.401 167.09C902.567 161.615 904.582 155.42 907.718 149.263Z" fill="url(#paint1_linear_4647_142)"/>
<path d="M1008.85 110.028C1002.87 141.303 996.946 172.003 991.08 202.716C990.283 206.893 988.215 208.786 983.752 208.552C977.721 208.236 971.657 208.306 965.615 208.495C960.508 208.655 958.998 206.928 960.076 201.662C965.716 174.097 971.047 146.469 976.463 118.858C978.441 108.774 980.463 98.6971 982.248 88.5786C982.939 84.6635 984.638 82.5464 988.832 82.6152C995.326 82.7219 1001.82 82.6616 1008.32 82.6003C1012.41 82.5617 1013.95 84.1665 1013.01 88.4079C1011.45 95.381 1010.26 102.436 1008.85 110.028Z" fill="url(#paint2_linear_4647_142)"/>
<path d="M991.886 47.3414C988.053 34.7931 994.125 23.5156 1005.7 20.7553C1017.07 18.0426 1025.86 25.5704 1024.92 37.2099C1024.31 44.6844 1018.43 51.3955 1010.36 53.8428C1002.72 56.1559 997.564 54.459 991.886 47.3414Z" fill="url(#paint3_linear_4647_142)"/>
<path d="M48.5567 191.586C45.0468 191.789 42.4054 191.443 39.4136 189.235C36.3411 186.442 34.6493 183.644 34.2794 179.5C34.2632 177.949 34.3146 176.417 34.3884 174.873L34.4552 173.053C34.8475 163.393 35.4894 153.757 36.1317 144.125C36.1623 143.661 36.1927 143.197 36.2229 142.732C36.2743 141.945 36.3252 141.157 36.3757 140.369C37.8251 118.04 39.3468 100.023 42.8381 96.1737C45.4001 94.1835 47.97 93.0684 51.4086 93.3618C55.1228 94.0675 57.9806 95.358 60.5117 98.2879C62.7674 102.476 63.1806 105.963 62.5997 110.434L62.4236 112.115C62.2988 113.288 60.6471 132.478 60.5118 133.649C60.1854 136.486 59.9074 139.329 59.6355 142.175L59.4647 143.948C58.5717 153.574 58.1732 163.278 57.7753 172.967L57.7752 172.968L57.7311 174.042L57.6393 176.106C57.5836 177.366 57.5342 178.627 57.4909 179.888C57.2041 186.255 54.7984 189.753 48.5567 191.586Z" fill="#00A3EE"/>
<path fill-rule="evenodd" clip-rule="evenodd" d="M22.2208 147.433C19.3509 145.981 16.1763 145.626 13.5532 147.712C10.7889 150.357 10.7889 150.357 10.2936 161.072L10.2414 162.23C9.40199 180.249 9.75487 198.22 11.4965 216.185L11.6113 217.36C11.7191 218.477 11.8279 219.593 11.9427 220.709L12.0497 221.734C12.2526 223.799 12.5275 225.712 13.3647 227.65C14.8372 229.65 16.108 230.663 18.625 231.327C21.2332 231.429 23.2317 230.949 25.2004 229.284C27.3693 226.444 27.1037 223.567 26.6767 220.247C24.136 201.231 24.1106 182.099 24.833 162.982L24.9382 160.216L24.9471 159.976C24.9866 158.912 25.0262 157.847 25.071 156.783L25.1052 155.973L25.1627 154.465C25.2784 151.827 24.6536 149.129 22.2208 147.433ZM221.4 203.96C221.05 201.688 220.093 200.242 218.555 198.713C216.182 197.402 213.529 196.957 211.169 198.521C210.876 198.75 210.592 198.973 210.307 199.196L209.343 199.94C208.725 200.42 208.103 200.893 207.477 201.36L206.594 202.01C202.071 205.338 197.507 208.587 192.918 211.798C191.865 212.532 190.816 213.272 189.77 214.019C185.525 217.081 181.168 219.876 176.758 222.629C175.085 223.673 173.418 224.726 171.756 225.793C167.973 228.221 164.18 230.595 160.304 232.833C160.149 232.921 159.993 233.009 159.837 233.097C157.085 234.644 154.218 236.256 152.432 239.148C151.804 241.355 151.772 243.318 152.432 245.547C153.563 247.386 154.665 248.634 156.456 249.624C158.476 250.096 160.198 249.976 162.085 249.006L163.337 248.207L164.724 247.335C165.601 246.778 166.482 246.231 167.368 245.693C183.429 236.085 199.244 225.807 214.386 214.452L215.21 213.833C216.741 212.698 218.252 211.568 219.637 210.209C221.106 208.362 221.511 206.392 221.4 203.96ZM146.012 252.312C145.395 250.485 144.605 249.257 142.992 248.156C140.757 247.059 138.655 246.963 136.421 248.018L135.616 248.443L134.676 248.936C120.779 256.264 106.692 263.118 91.9452 268.566L90.8857 268.956L88.8805 269.699C77.2599 273.876 82.0814 286.449 92.71 282.451L93.6538 282.078C94.7041 281.677 95.7536 281.273 96.8008 280.862C97.5401 280.572 98.2801 280.283 99.0208 279.995C104.147 278.006 109.234 275.951 114.232 273.653C115.4 273.108 116.571 272.566 117.743 272.029C125.578 268.453 133.39 264.721 140.89 260.475L141.726 259.994C142.677 259.462 143.476 258.934 144.354 258.271C145.778 256.288 146.233 254.716 146.012 252.312ZM141.539 192.115C140.585 190.24 139.531 189.118 137.631 188.203C135.61 187.982 134.033 187.997 132.244 188.976C123.777 193.666 115.222 198.149 106.476 202.296L105.516 202.751C102.282 204.284 99.0488 205.817 95.775 207.263L95.0294 207.592C94.1127 208.001 83.9233 213.217 83.0063 213.623C82.822 213.701 82.6389 213.778 82.4572 213.854C80.5507 214.649 78.8014 215.38 77.511 217.101C76.4403 219.058 76.1859 220.56 76.6318 222.792C77.4543 224.514 78.2386 225.813 79.9501 226.686C82.2107 227.524 83.7866 227.484 86.0804 226.646L87.28 226.117C88.0413 225.782 98.0738 220.636 98.8323 220.295L99.7275 219.891C107.88 216.249 115.892 212.331 123.784 208.155C125.439 207.271 127.095 206.391 128.767 205.538C129.715 205.057 130.663 204.574 131.61 204.091L133.04 203.362C133.32 203.222 133.6 203.083 133.879 202.945C136.856 201.47 139.756 200.034 141.539 197.079C142.025 195.284 142.016 193.907 141.539 192.115ZM197.838 191.651C197.182 188.433 195.49 186.449 192.877 184.386C188.949 182.709 185.328 182.441 181.477 184.418L153.545 202.583L151.879 203.491C150.645 204.167 149.41 204.841 148.174 205.515L146.194 206.593L145.566 206.935C135.396 212.481 125.223 218.028 114.907 223.315L113.59 223.987C108.817 226.426 104.024 228.816 99.1755 231.105L97.7837 231.76C95.593 232.791 87.1692 236.721 84.9677 237.729L83.7543 238.284L81.4771 239.336C77.9865 240.927 75.4863 242.746 73.0582 245.676C69.9985 252.331 73.1814 257.696 79.8827 260.302C83.9246 260.934 87.8077 260.628 91.394 258.929L92.996 258.143C94.2274 257.549 95.4584 256.954 96.6889 256.359C98.6861 255.379 106.918 251.514 108.928 250.56C120.854 244.937 132.474 238.779 144.065 232.532C145.343 231.843 146.622 231.155 147.903 230.467C149.968 229.361 152.031 228.249 154.091 227.134L156.423 225.869L156.925 225.6C161.401 223.202 192.31 203.458 195.987 199.94C197.805 197.208 198.102 194.829 197.838 191.651ZM122.603 80.5171C121.502 79.969 120.398 79.4282 119.291 78.8945C115.034 76.9194 111.793 76.1282 107.857 79.111C106.147 81.1241 105.427 83.0345 105.553 85.6727C106.447 88.6541 107.937 90.5383 110.6 92.0896C111.388 92.4572 112.175 92.8276 112.96 93.2009L113.842 93.6213C127.316 99.9436 140.124 107.444 152.527 115.728C152.937 116.007 153.349 116.294 153.763 116.582C156.342 118.382 159.006 120.241 162.146 120.503C165.011 120.217 166.499 118.938 168.367 116.782C169.423 114.632 169.39 112.872 169.144 110.514C168.98 109.694 168.863 109.116 168.621 108.599C168.041 107.359 166.737 106.469 162.304 103.445L161.31 102.78C149.36 94.7439 136.914 87.5766 124.029 81.2183L122.603 80.5171ZM199.945 70.2004C197.447 68.1871 194.92 66.1498 192.042 64.8297C188.731 64.296 186.757 64.7362 184.267 67.1562C182.754 69.5157 182.73 71.8263 182.971 74.6009C184.305 77.474 186.427 79.0863 188.846 80.8372C189.698 81.4416 190.547 82.0498 191.395 82.6616L192.683 83.5922C199.62 88.5675 206.368 93.8244 213.018 99.232C214.711 100.618 230.008 112.044 231.726 113.393L232.745 114.161C233.801 114.964 234.457 115.347 235.741 115.58C238.27 115.698 240.205 115.223 242.121 113.351C243.839 111.238 243.873 109.195 243.847 106.466C243.469 103.97 242.349 102.661 240.503 101.16L239.784 100.595L238.252 99.3614C237.325 98.6249 222.812 87.8237 221.893 87.0744C216.659 82.7986 211.323 78.6686 205.892 74.6883L205.861 74.6658C204.088 73.37 202.318 72.0767 200.586 70.7166C200.373 70.545 200.159 70.3728 199.945 70.2004ZM30.1719 96.6598C28.3045 92.9214 24.2653 90.859 20.4271 93.2121C18.8027 94.6416 17.9305 96.269 17.4843 98.3799L17.3256 99.2269C15.6668 107.627 14.3804 116.114 13.2715 124.603L13.0026 126.685C12.8717 127.673 12.7412 128.66 12.6173 129.648L12.5036 130.567C11.8801 135.221 12.1967 139.277 16.886 141.258C19.086 141.656 20.8745 141.348 22.7474 140.084C24.702 138.127 25.101 135.787 25.3988 133.103C25.4595 132.516 25.5226 131.93 25.5883 131.344L25.6969 130.378C26.5195 122.945 27.6116 115.59 28.9473 108.232C29.0615 107.604 29.1848 106.972 29.3087 106.336C29.9301 103.149 30.5683 99.8753 30.1719 96.6598ZM54.6858 207.076C53.7059 204.234 52.2843 202.181 49.5368 200.616C45.1315 198.906 40.5664 199.404 37.2257 202.579C31.9558 208.466 31.9558 208.466 36.368 254.84C36.4117 255.306 36.4553 255.759 36.4988 256.212C36.5469 256.753 36.5902 257.293 36.6333 257.832C36.9682 262.012 37.296 266.103 39.8093 269.753C42.0055 271.735 43.9094 272.549 46.9479 272.83C50.5083 272.994 52.8405 271.941 55.4994 269.795C58.1161 266.672 58.0961 263.48 57.8782 259.654C57.7566 258.488 57.6356 257.321 57.5203 256.155L57.3895 254.814C56.6477 247.396 56.02 239.987 55.7333 232.544L55.655 230.377C55.5246 226.8 55.3968 223.223 55.301 219.645C55.2652 218.28 55.2252 216.916 55.181 215.552L55.1175 213.623C55.0763 211.423 55.0253 209.258 54.6858 207.076ZM45.9577 31.4182C43.1387 32.8531 41.6987 34.7316 40.34 37.2159L39.765 38.3189C34.5621 48.2512 30.156 58.568 26.4974 68.9797L26.1543 69.9602C25.9877 70.4275 25.8113 70.9037 25.6325 71.3866C24.3049 74.9703 22.8353 78.9376 24.1558 82.5878C26.9081 87.5473 33.1025 88.6268 38.1159 86.523C41.7734 84.1179 41.7734 84.1179 43.8904 77.4908C44.4907 75.5625 45.1114 73.639 45.7523 71.7203L46.143 70.5534C48.1485 64.5309 50.7316 58.7306 53.6527 52.9845C54.3053 51.7051 54.9548 50.4246 55.6012 49.143C56.0761 48.1975 56.5603 47.2552 57.0538 46.3165C62.054 36.8619 56.1924 28.813 45.9577 31.4182ZM184.468 117.736C184.108 117.524 183.716 117.352 182.983 117.031C179.822 116.651 177.807 116.65 175.174 118.232C173.304 119.528 172.149 120.859 171.735 122.956C171.52 125.566 172.376 127.42 174.302 129.501C177.113 132.144 179.515 134.815 181.333 138.048C183.469 142.803 184.205 147.883 181.963 152.684C181.344 153.91 180.775 155.127 180.28 156.394C179.745 159.467 180.572 161.558 182.659 164.083C184.073 165.252 185.092 165.887 187.044 166.127C190.4 166.262 192.15 165.839 194.732 164.003C199.863 159.303 200.444 151.408 200.488 145.228C200.176 135.878 194.833 126.28 187.075 119.723L186.051 118.913C185.253 118.276 184.881 117.979 184.468 117.736ZM147.125 36.6815C145.433 35.688 143.736 34.7237 142.003 33.8094C137.422 31.8046 133.092 32.3907 130.398 37.1163C129.474 39.4273 129.376 41.1992 129.996 43.6639C130.415 44.7259 130.703 45.457 131.127 46.0872C132.064 47.4796 133.663 48.3802 138.793 51.2701C141.355 52.692 142.903 53.5795 142.903 53.5795C145.111 54.8304 147.303 56.1116 149.479 57.4229L150.701 58.1604C152.862 59.4539 155.023 60.7474 157.154 62.0955L158.615 63.0237L161.514 64.8297C164.99 67.0981 167.779 68.4302 171.941 67.7103C173.869 66.8536 174.918 65.7204 176.129 63.943C177.235 61.5694 177.129 59.249 176.708 56.689C175.859 53.8611 175.859 53.8611 170.792 50.9755C168.785 49.8415 166.806 48.6557 164.855 47.4192C159.625 44.1038 154.366 40.846 149.01 37.762L147.125 36.6815ZM113.111 22.9126L112.178 22.6241C100.077 18.8166 78.1008 12.7815 66.0874 19.5386C64.3555 21.1225 63.6796 22.4673 63.3177 24.9058C63.3405 27.1685 64.0122 29.0079 65.4022 30.6772C67.5003 32.5711 67.5003 32.5711 74.8025 32.3099C76.3348 32.2523 77.8666 32.2194 79.3994 32.1865L80.5216 32.1633C85.3853 32.0502 90.1188 32.4189 94.926 33.2659L96.2899 33.5194C99.8185 34.1673 103.262 34.9541 106.697 36.0587C109.2 36.9052 111.539 37.5408 114.16 37.7619C116.56 36.9679 118.027 36.0608 119.291 33.648C119.826 31.2115 119.883 30.0194 119.262 27.6056C117.821 24.9408 115.767 23.8063 113.111 22.9126ZM178.402 170.045C178.137 168 177.103 166.894 175.563 165.617C172.811 163.932 170.094 164.711 167.711 166.547C163.051 170.192 158.252 173.75 153.172 176.788L152.432 177.225L151.716 177.647C151.326 177.877 150.929 178.103 150.529 178.329C148.335 179.574 146.079 180.854 144.787 183.068C144.072 184.82 144.148 186.401 144.665 188.203C145.619 190.078 146.674 191.2 148.573 192.115C149.781 192.249 150.706 192.352 151.619 192.284C154.593 192.065 157.434 190.04 169.534 181.416L170.431 180.77C172.63 179.193 174.724 177.529 176.708 175.684C178.361 173.863 178.435 172.409 178.402 170.045ZM265.946 130.764C264.578 127.962 263.452 126.104 260.119 124.438C254.55 123.237 251.137 124.732 248.551 128.745C248.36 130.521 248.472 131.789 249.2 133.481C249.832 134.624 250.437 135.776 251.015 136.936C256.711 148.925 256.572 162.523 250.082 174.269C248.613 176.897 247.98 178.642 248.551 181.502C249.839 183.266 251.051 184.077 253.187 185.203C255.853 185.948 256.917 186.561 259.638 186.003C262.215 185.012 263.663 182.693 264.838 180.673L265.563 179.349L266.395 177.89C274.114 163.361 273.684 146.59 266.557 131.98L265.946 130.764Z" fill="url(#paint4_linear_4647_142)"/>
<path fill-rule="evenodd" clip-rule="evenodd" d="M99.1969 79.307L99.0439 80.2404C98.4545 83.7435 97.727 87.2211 96.9871 90.6979L96.5453 92.7925C96.2391 94.243 95.9322 95.6933 95.6246 97.1434C95.2331 98.9852 94.8438 100.827 94.4568 102.67C94.2282 103.755 94.0028 104.82 93.777 105.887C93.5579 106.923 93.3384 107.96 93.1153 109.018C92.4409 112.218 91.7538 115.414 90.9747 118.593C90.1957 121.772 88.6761 123.003 85.9344 124.108C82.7983 124.669 80.62 124.556 77.5276 123.372C73.4482 120.976 72.1808 118.599 73.0719 114.149L73.2836 113.024C73.516 111.798 73.7573 110.573 73.9991 109.348C74.1643 108.492 74.3291 107.636 74.4935 106.779C75.708 100.516 77.0144 94.2703 78.362 88.0316L78.6294 86.7926C79.1149 84.5521 79.6108 82.3135 80.1218 80.0774C80.3267 79.1731 80.5233 78.2675 80.7193 77.3619C80.8365 76.8505 80.9543 76.3393 81.0726 75.8283L81.3605 74.5392C82.0704 72.7531 83.3532 71.3496 85.6896 70.5267C91.829 68.5478 100.487 71.7196 99.1969 79.307ZM88.9774 134.209C88.053 132.253 86.7455 130.933 84.2829 129.873C81.5814 129.053 78.5944 129.005 76.1245 130.068L74.9462 130.681L73.7647 131.275C71.6349 132.878 71.3133 135.015 71.026 137.179L70.9187 138.133C69.4968 150.309 69.0889 162.635 70.1841 174.907L70.3064 176.135C70.5428 178.776 70.986 180.719 72.9714 183.029C75.4936 184.643 77.5336 185.126 80.8396 185.214C83.5413 185.061 85.0146 184.127 86.8155 182.798C88.8754 180.235 88.8754 180.235 88.2978 174.011C87.5286 166.226 87.4827 158.515 88.0281 150.758C88.0929 149.842 88.1567 148.926 88.2193 148.011L88.227 147.897C88.3506 146.082 88.4741 144.267 88.6222 142.454C88.6948 141.567 88.7631 140.68 88.827 139.792L88.9153 138.532C89.0493 137.081 89.1752 135.667 88.9774 134.209Z" fill="url(#paint5_linear_4647_142)"/>
<path fill-rule="evenodd" clip-rule="evenodd" d="M99.08 42.9437L96.9087 41.9737C96.3501 41.72 95.7855 41.4518 95.2156 41.181C91.7876 39.5521 88.1544 37.8257 84.3075 38.5696C82.014 39.24 80.4477 41.0767 79.2521 42.9767C78.6713 45.0323 78.5886 46.5921 79.2521 48.6325C80.8826 51.5079 80.8826 51.5079 91.9333 56.261C98.9434 59.2759 105.867 62.4125 112.705 65.7756L114.101 66.4643C125.809 72.2311 137.355 78.2637 148.712 84.6461L149.675 85.1878C151.385 86.1418 182.604 104.493 184.267 105.521C184.798 105.853 185.332 106.199 185.866 106.546C188.854 108.485 191.943 110.49 195.601 110.604C197.725 110.357 199.194 109.811 200.77 108.375C202.473 106.433 203.221 104.654 203.094 102.134C201.887 98.3369 199.368 96.6768 195.987 94.7091L194.643 93.9423C189.654 91.0642 155.107 70.8621 150.055 68.0893C148.623 67.3047 147.191 66.5201 145.764 65.7283C133.097 58.6923 119.98 52.4338 106.758 46.4218L105.737 45.9577C103.522 44.9454 101.303 43.9407 99.08 42.9437Z" fill="url(#paint6_linear_4647_142)"/>
<path d="M74.3724 69.9133C74.3724 75.5619 69.7986 80.141 64.1564 80.141C58.5143 80.141 53.9404 75.5619 53.9404 69.9133C53.9404 64.2646 58.5143 59.6855 64.1564 59.6855C69.7986 59.6855 74.3724 64.2646 74.3724 69.9133Z" fill="#01A3EE"/>
<ellipse cx="80.9109" cy="198.781" rx="8.99008" ry="9.00038" fill="#00A2EE"/>
<ellipse cx="67.8336" cy="276.92" rx="8.1728" ry="8.59127" fill="#00A2EE"/>
<path d="M221.891 128.418C221.891 128.418 228.785 143.597 228.43 155.419C228.104 166.267 222.709 181.193 222.709 181.193" stroke="url(#paint7_linear_4647_142)" stroke-width="21.1312" stroke-linecap="round"/>
<defs>
<linearGradient id="paint0_linear_4647_142" x1="894.918" y1="107.067" x2="1214.1" y2="291.573" gradientUnits="userSpaceOnUse">
<stop offset="0.368772" stop-color="#EDEDED"/>
<stop offset="0.723538" stop-color="#02111B"/>
</linearGradient>
<linearGradient id="paint1_linear_4647_142" x1="913.143" y1="82.3555" x2="1037" y2="152.856" gradientUnits="userSpaceOnUse">
<stop stop-color="white"/>
<stop offset="0.642295" stop-color="#F0F1F2"/>
</linearGradient>
<linearGradient id="paint2_linear_4647_142" x1="960.236" y1="82.1524" x2="1034.31" y2="177.099" gradientUnits="userSpaceOnUse">
<stop stop-color="white"/>
<stop offset="0.592365" stop-color="#E0E2E3"/>
</linearGradient>
<linearGradient id="paint3_linear_4647_142" x1="1007.37" y1="20.2012" x2="1055.18" y2="55.2168" gradientUnits="userSpaceOnUse">
<stop offset="0.0846526" stop-color="#F7F7F8"/>
<stop offset="0.742157" stop-color="#999999"/>
</linearGradient>
<linearGradient id="paint4_linear_4647_142" x1="9.8064" y1="149.272" x2="276.947" y2="149.272" gradientUnits="userSpaceOnUse">
<stop offset="0.3125" stop-color="#00A3EE"/>
<stop offset="0.591346" stop-color="#00A3FF"/>
<stop offset="1" stop-color="#003780"/>
</linearGradient>
<linearGradient id="paint5_linear_4647_142" x1="9.8064" y1="149.272" x2="276.947" y2="149.272" gradientUnits="userSpaceOnUse">
<stop offset="0.3125" stop-color="#00A3EE"/>
<stop offset="0.591346" stop-color="#00A3FF"/>
<stop offset="1" stop-color="#003780"/>
</linearGradient>
<linearGradient id="paint6_linear_4647_142" x1="9.8064" y1="149.272" x2="276.947" y2="149.272" gradientUnits="userSpaceOnUse">
<stop offset="0.3125" stop-color="#00A3EE"/>
<stop offset="0.591346" stop-color="#00A3FF"/>
<stop offset="1" stop-color="#003780"/>
</linearGradient>
<linearGradient id="paint7_linear_4647_142" x1="204.728" y1="154.601" x2="232.107" y2="154.601" gradientUnits="userSpaceOnUse">
<stop stop-color="#0085DB"/>
<stop offset="0.826923" stop-color="#004C98"/>
</linearGradient>
</defs>
</svg>
