<svg width="276" height="92" viewBox="0 0 276 92" fill="none" xmlns="http://www.w3.org/2000/svg">
<path d="M12.7781 77.3673L3.5113 77.8433L0.848267 25.9957L268.656 12.2404L271.32 64.0879L261.502 64.5922" stroke="url(#paint0_linear_4671_136)"/>
<path d="M250.096 65.178L191.471 68.1891" stroke="#004166"/>
<path d="M177.971 68.882L15.0962 77.2477" stroke="#004267"/>
<path d="M16.006 73.3982L15.2569 73.4352L15.2946 74.1842L16.0437 74.1473L16.006 73.3982ZM14.4439 42.3571L14.4062 41.6081L13.6571 41.645L13.6948 42.3941L14.4439 42.3571ZM21.1872 42.0245L21.9348 41.9648L21.8761 41.2397L21.1495 41.2755L21.1872 42.0245ZM21.803 49.628L21.5017 50.3145L22.6519 50.8202L22.5505 49.5682L21.803 49.628ZM21.0878 49.3137L20.3469 49.1964L20.257 49.7674L20.7865 50.0001L21.0878 49.3137ZM22.6764 44.9813L22.0523 44.5647L22.05 44.5682L22.6764 44.9813ZM25.7361 42.0916L26.1049 42.745L26.1127 42.7405L25.7361 42.0916ZM36.3806 42.8486L35.8984 43.4227L35.906 43.4288L36.3806 42.8486ZM39.7687 48.8002L39.8064 49.5493L40.6885 49.5057L40.5018 48.6424L39.7687 48.8002ZM38.7805 48.8489L38.0377 48.7444L37.9121 49.6427L38.8182 49.598L38.7805 48.8489ZM40.3544 44.226L40.9872 44.6294L40.9931 44.6199L40.3544 44.226ZM43.4083 41.2199L43.0396 40.5664L43.0318 40.571L43.4083 41.2199ZM53.3694 41.1366L53.0163 41.798L53.0287 41.8043L53.3694 41.1366ZM57.1144 44.9145L56.4515 45.2648L56.458 45.2766L57.1144 44.9145ZM59.7215 71.2421L59.7592 71.9912L60.5083 71.9542L60.4706 71.2052L59.7215 71.2421ZM52.2805 71.6091L51.5314 71.6461L51.5691 72.3951L52.3182 72.3582L52.2805 71.6091ZM49.747 47.9001L49.1446 48.3464L49.1493 48.3526L49.154 48.3588L49.747 47.9001ZM40.8243 50.0884L40.112 49.8524L40.108 49.8653L40.8243 50.0884ZM41.2935 72.151L41.3312 72.9L42.0803 72.8631L42.0426 72.1141L41.2935 72.151ZM34.3758 72.4922L33.6267 72.5291L33.6644 73.2782L34.4135 73.2412L34.3758 72.4922ZM32.0225 48.8909L32.6542 48.4872V48.4872L32.0225 48.8909ZM24.8748 48.1362L24.4037 47.5522L24.3972 47.5574L24.3908 47.5628L24.8748 48.1362ZM23.0358 50.9658L22.3303 50.7101L22.3263 50.7219L23.0358 50.9658ZM23.4469 73.0312L23.4846 73.7803L24.2337 73.7433L24.196 72.9943L23.4469 73.0312ZM16.006 73.3982L16.7551 73.3613L15.1929 42.3202L14.4439 42.3571L13.6948 42.3941L15.2569 73.4352L16.006 73.3982ZM14.4439 42.3571L14.4816 43.1062L21.2249 42.7736L21.1872 42.0245L21.1495 41.2755L14.4062 41.6081L14.4439 42.3571ZM21.1872 42.0245L20.4396 42.0843L21.0554 49.6878L21.803 49.628L22.5505 49.5682L21.9348 41.9648L21.1872 42.0245ZM21.803 49.628L22.1042 48.9415L21.3891 48.6272L21.0878 49.3137L20.7865 50.0001L21.5017 50.3145L21.803 49.628ZM21.0878 49.3137L21.8287 49.4309C22.08 47.8342 22.5772 46.4951 23.3027 45.3945L22.6764 44.9813L22.05 44.5682C21.1873 45.8768 20.6255 47.426 20.3469 49.1964L21.0878 49.3137ZM22.6764 44.9813L23.3004 45.398C24.0713 44.2427 25.0064 43.3639 26.1049 42.745L25.7361 42.0916L25.3674 41.4381C24.048 42.1816 22.9433 43.2294 22.0523 44.5647L22.6764 44.9813ZM25.7361 42.0916L26.1127 42.7405C27.2499 42.0816 28.5113 41.7149 29.9096 41.646L29.8719 40.8969L29.8342 40.1479C28.2097 40.228 26.7139 40.6578 25.3596 41.4426L25.7361 42.0916ZM29.8719 40.8969L29.9096 41.646C32.3933 41.5235 34.3661 42.1355 35.8985 43.4226L36.3806 42.8486L36.8627 42.2745C34.9875 40.6995 32.6212 40.0104 29.8342 40.1479L29.8719 40.8969ZM36.3806 42.8486L35.906 43.4288C37.4516 44.6934 38.5072 46.5144 39.0357 48.958L39.7687 48.8002L40.5018 48.6424C39.9164 45.9352 38.7132 43.7885 36.8552 42.2683L36.3806 42.8486ZM39.7687 48.8002L39.7311 48.0511L38.7428 48.0999L38.7805 48.8489L38.8182 49.598L39.8064 49.5493L39.7687 48.8002ZM38.7805 48.8489L39.5233 48.9535C39.7693 47.1946 40.2656 45.762 40.9871 44.6294L40.3544 44.226L39.7217 43.8226C38.859 45.1768 38.306 46.8261 38.0377 48.7444L38.7805 48.8489ZM40.3544 44.226L40.9931 44.6199C41.7214 43.4381 42.6513 42.5258 43.7849 41.8689L43.4083 41.2199L43.0318 40.571C41.6739 41.3578 40.5678 42.4496 39.7158 43.8321L40.3544 44.226ZM43.4083 41.2199L43.7771 41.8734C44.9499 41.2125 46.2906 40.838 47.8144 40.7629L47.7767 40.0138L47.739 39.2648C46.0074 39.3502 44.4358 39.7798 43.0396 40.5665L43.4083 41.2199ZM47.7767 40.0138L47.8144 40.7629C49.8347 40.6632 51.5593 41.0191 53.0164 41.7979L53.3694 41.1366L53.7225 40.4753C51.9856 39.5469 49.9817 39.1542 47.739 39.2648L47.7767 40.0138ZM53.3694 41.1366L53.0287 41.8043C54.4757 42.5435 55.6163 43.6864 56.4516 45.2647L57.1144 44.9145L57.7773 44.5642C56.8093 42.735 55.4533 41.3593 53.7102 40.4688L53.3694 41.1366ZM57.1144 44.9145L56.458 45.2766C57.3285 46.852 57.8442 48.8623 57.969 51.3407L58.7181 51.3037L59.4672 51.2668C59.3344 48.6298 58.7811 46.3806 57.7709 44.5523L57.1144 44.9145ZM58.7181 51.3037L57.969 51.3407L58.9724 71.2791L59.7215 71.2421L60.4706 71.2052L59.4672 51.2668L58.7181 51.3037ZM59.7215 71.2421L59.6838 70.4931L52.2428 70.8601L52.2805 71.6091L52.3182 72.3582L59.7592 71.9912L59.7215 71.2421ZM52.2805 71.6091L53.0296 71.5722L52.1228 53.5521L51.3737 53.589L50.6246 53.626L51.5314 71.6461L52.2805 71.6091ZM51.3737 53.589L52.1228 53.5521C51.9908 50.9304 51.4325 48.8531 50.34 47.4415L49.747 47.9001L49.154 48.3588C49.973 49.4169 50.4991 51.1322 50.6246 53.626L51.3737 53.589ZM49.747 47.9001L50.3494 47.4539C49.2573 45.9808 47.6465 45.3298 45.6598 45.4278L45.6975 46.1768L45.7352 46.9259C47.3139 46.848 48.4029 47.3459 49.1446 48.3464L49.747 47.9001ZM45.6975 46.1768L45.6598 45.4278C44.3231 45.4937 43.1537 45.8998 42.1922 46.6748L42.6633 47.2589L43.1344 47.8429C43.8156 47.2938 44.6691 46.9785 45.7352 46.9259L45.6975 46.1768ZM42.6633 47.2589L42.1922 46.6748C41.236 47.4456 40.5518 48.5219 40.1121 49.8525L40.8243 50.0884L41.5365 50.3244C41.9059 49.2064 42.4478 48.3963 43.1344 47.8429L42.6633 47.2589ZM40.8243 50.0884L40.108 49.8653C39.7068 51.1565 39.5624 52.6745 39.6493 54.4004L40.3984 54.3634L41.1475 54.3265C41.0666 52.7196 41.2062 51.3876 41.5406 50.3116L40.8243 50.0884ZM40.3984 54.3634L39.6493 54.4004L40.5445 72.1879L41.2935 72.151L42.0426 72.1141L41.1475 54.3265L40.3984 54.3634ZM41.2935 72.151L41.2558 71.4019L34.3381 71.7431L34.3758 72.4922L34.4135 73.2412L41.3312 72.9L41.2935 72.151ZM34.3758 72.4922L35.1249 72.4552L34.2297 54.6677L33.4806 54.7046L32.7316 54.7415L33.6267 72.5291L34.3758 72.4922ZM33.4806 54.7046L34.2297 54.6677C34.0982 52.0538 33.5994 49.9644 32.6542 48.4872L32.0225 48.8909L31.3908 49.2946C32.1324 50.4536 32.6057 52.2401 32.7316 54.7415L33.4806 54.7046ZM32.0225 48.8909L32.6542 48.4872C31.6323 46.89 29.9709 46.2016 27.8713 46.3051L27.909 47.0542L27.9467 47.8032C29.6451 47.7195 30.726 48.2555 31.3908 49.2946L32.0225 48.8909ZM27.909 47.0542L27.8713 46.3051C26.5346 46.3711 25.3653 46.7771 24.4037 47.5522L24.8748 48.1362L25.3459 48.7203C26.0272 48.1711 26.8806 47.8558 27.9467 47.8032L27.909 47.0542ZM24.8748 48.1362L24.3908 47.5628C23.4839 48.3278 22.8065 49.3936 22.3304 50.7102L23.0358 50.9658L23.7412 51.2214C24.1519 50.0856 24.7004 49.265 25.3588 48.7096L24.8748 48.1362ZM23.0358 50.9658L22.3263 50.7219C21.8804 52.0221 21.7155 53.5487 21.8027 55.2806L22.5518 55.2436L23.3009 55.2067C23.2203 53.6058 23.3781 52.2805 23.7453 51.2097L23.0358 50.9658ZM22.5518 55.2436L21.8027 55.2806L22.6979 73.0682L23.4469 73.0312L24.196 72.9943L23.3009 55.2067L22.5518 55.2436ZM23.4469 73.0312L23.4092 72.2822L15.9683 72.6492L16.006 73.3982L16.0437 74.1473L23.4846 73.7803L23.4469 73.0312ZM74.766 69.2181L74.4163 69.8812L74.4229 69.8846L74.4295 69.888L74.766 69.2181ZM69.1312 63.7852L68.4803 64.1574L68.4851 64.1655L69.1312 63.7852ZM68.2711 46.6952L67.5901 46.3803L67.5882 46.3844L68.2711 46.6952ZM73.3355 40.7928L73.7422 41.4234L73.7455 41.4212L73.3355 40.7928ZM89.4382 39.9986L89.0884 40.6618L89.0968 40.6661L89.4382 39.9986ZM95.012 45.3763L94.3612 45.7484L94.3647 45.7547L94.3684 45.7608L95.012 45.3763ZM95.872 62.4663L95.1909 62.1514L95.1871 62.16L95.872 62.4663ZM90.8687 68.4239L91.2754 69.0545L91.2833 69.0493L90.8687 68.4239ZM88.0296 61.8042L87.4048 61.3886L87.399 61.3976L88.0296 61.8042ZM87.2778 46.8649L86.6864 47.3256L86.692 47.3328L86.6978 47.3399L87.2778 46.8649ZM76.1746 47.4125L76.7994 47.8281L76.8036 47.8216L76.1746 47.4125ZM76.9264 62.3518L77.5064 61.8768V61.8768L76.9264 62.3518ZM82.9459 70.7959L82.9082 70.0469C79.9569 70.1925 77.3624 69.6848 75.1026 68.5482L74.766 69.2181L74.4295 69.888C76.9529 71.1572 79.8116 71.7014 82.9836 71.545L82.9459 70.7959ZM74.766 69.2181L75.1158 68.555C72.8887 67.3789 71.1111 65.668 69.7773 63.4049L69.1312 63.7852L68.4851 64.1655C69.9548 66.6591 71.9338 68.5701 74.4163 69.8812L74.766 69.2181ZM69.1312 63.7852L69.782 63.413C68.4877 61.1529 67.749 58.4544 67.59 55.295L66.8409 55.3319L66.0918 55.3689C66.2605 58.7199 67.0486 61.657 68.4804 64.1573L69.1312 63.7852ZM66.8409 55.3319L67.59 55.295C67.429 52.0947 67.894 49.3395 68.9541 47.0059L68.2711 46.6952L67.5882 46.3844C66.4098 48.9785 65.9213 51.9811 66.0918 55.3689L66.8409 55.3319ZM68.2711 46.6952L68.9522 47.01C70.0514 44.6286 71.647 42.7732 73.7422 41.4234L73.3355 40.7928L72.9289 40.1623C70.5836 41.6732 68.803 43.7527 67.5901 46.3803L68.2711 46.6952ZM73.3355 40.7928L73.7455 41.4212C75.8768 40.0322 78.4037 39.2542 81.3512 39.1088L81.3135 38.3598L81.2758 37.6107C78.1001 37.7673 75.3083 38.6114 72.9255 40.1644L73.3355 40.7928ZM81.3135 38.3598L81.3512 39.1088C84.2991 38.9634 86.8698 39.4901 89.0884 40.6617L89.4382 39.9986L89.7879 39.3355C87.2969 38.02 84.4512 37.4541 81.2758 37.6107L81.3135 38.3598ZM89.4382 39.9986L89.0968 40.6661C91.315 41.802 93.0676 43.4895 94.3612 45.7484L95.012 45.3763L95.6628 45.0041C94.2303 42.5025 92.267 40.6049 89.7795 39.3312L89.4382 39.9986ZM95.012 45.3763L94.3684 45.7608C95.6932 47.9749 96.4504 50.6668 96.6113 53.8636L97.3604 53.8267L98.1095 53.7897C97.9388 50.3986 97.1304 47.4568 95.6555 44.9917L95.012 45.3763ZM97.3604 53.8267L96.6113 53.8636C96.7701 57.0197 96.2878 59.7753 95.191 62.1515L95.872 62.4663L96.5531 62.7811C97.7684 60.1483 98.2783 57.1441 98.1095 53.7897L97.3604 53.8267ZM95.872 62.4663L95.1871 62.16C94.1259 64.5368 92.5501 66.4104 90.4541 67.7985L90.8687 68.4239L91.2833 69.0493C93.6239 67.4991 95.3835 65.4009 96.557 62.7726L95.872 62.4663ZM90.8687 68.4239L90.462 67.7933C88.3688 69.1418 85.8598 69.9013 82.9082 70.0469L82.9459 70.7959L82.9836 71.545C86.1552 71.3886 88.9281 70.5667 91.2754 69.0544L90.8687 68.4239ZM82.6417 64.7505L82.6793 65.4995C85.2968 65.3705 87.3264 64.2811 88.6603 62.2108L88.0296 61.8042L87.399 61.3976C86.3545 63.0187 84.7921 63.8935 82.604 64.0014L82.6417 64.7505ZM88.0296 61.8042L88.6545 62.2197C90.0032 60.1903 90.5443 57.4783 90.3779 54.171L89.6288 54.208L88.8797 54.2449C89.037 57.3706 88.512 59.7228 87.4048 61.3886L88.0296 61.8042ZM89.6288 54.208L90.3779 54.171C90.2133 50.9001 89.4026 48.2753 87.8578 46.39L87.2778 46.8649L86.6978 47.3399C87.9678 48.8898 88.7245 51.1604 88.8797 54.2449L89.6288 54.208ZM87.2778 46.8649L87.8692 46.4043C86.3348 44.4358 84.2041 43.5267 81.5801 43.6562L81.6178 44.4052L81.6555 45.1543C83.837 45.0467 85.4797 45.7774 86.6864 47.3256L87.2778 46.8649ZM81.6178 44.4052L81.5801 43.6562C78.9563 43.7856 76.9128 44.8997 75.5455 47.0034L76.1746 47.4125L76.8036 47.8216C77.8883 46.1526 79.4736 45.2619 81.6555 45.1543L81.6178 44.4052ZM76.1746 47.4125L75.5498 46.997C74.2019 49.025 73.6588 51.7166 73.8234 54.9875L74.5725 54.9506L75.3216 54.9136C75.1664 51.8291 75.6913 49.4953 76.7994 47.8281L76.1746 47.4125ZM74.5725 54.9506L73.8234 54.9875C73.9899 58.2948 74.8006 60.9401 76.3464 62.8267L76.9264 62.3518L77.5064 61.8768C76.2375 60.3282 75.4789 58.0393 75.3216 54.9136L74.5725 54.9506ZM76.9264 62.3518L76.3464 62.8267C77.9188 64.7457 80.0621 65.6286 82.6793 65.4995L82.6417 64.7505L82.604 64.0014C80.4156 64.1094 78.7488 63.3931 77.5064 61.8768L76.9264 62.3518ZM106.209 68.9493L105.46 68.9863L105.497 69.7353L106.246 69.6984L106.209 68.9493ZM104.132 27.6775L104.094 26.9284L103.345 26.9654L103.383 27.7144L104.132 27.6775ZM111.573 27.3105L112.322 27.2735L112.284 26.5245L111.535 26.5614L111.573 27.3105ZM112.792 51.5504L112.043 51.5874L112.141 53.5255L113.372 52.0268L112.792 51.5504ZM124.818 36.9133L124.781 36.1643L124.449 36.1806L124.239 36.4369L124.818 36.9133ZM134.003 36.4603L134.575 36.9469L135.7 35.6258L133.966 35.7113L134.003 36.4603ZM122.503 49.9643L121.932 49.4777L121.538 49.9396L121.909 50.421L122.503 49.9643ZM135.972 67.4813L136.01 68.2304L137.44 68.1599L136.567 67.0246L135.972 67.4813ZM127.601 67.8942L126.997 68.3381L127.236 68.6631L127.639 68.6433L127.601 67.8942ZM117.842 54.623L118.446 54.1791L117.886 53.4165L117.272 54.1357L117.842 54.623ZM113.22 60.0373L112.649 59.55L112.455 59.7766L112.47 60.0743L113.22 60.0373ZM113.65 68.5823L113.687 69.3314L114.436 69.2944L114.399 68.5454L113.65 68.5823ZM106.209 68.9493L106.958 68.9124L104.881 27.6405L104.132 27.6775L103.383 27.7144L105.46 68.9863L106.209 68.9493ZM104.132 27.6775L104.169 28.4265L111.61 28.0595L111.573 27.3105L111.535 26.5614L104.094 26.9284L104.132 27.6775ZM111.573 27.3105L110.823 27.3474L112.043 51.5874L112.792 51.5504L113.542 51.5135L112.322 27.2735L111.573 27.3105ZM112.792 51.5504L113.372 52.0268L125.398 37.3898L124.818 36.9133L124.239 36.4369L112.213 51.074L112.792 51.5504ZM124.818 36.9133L124.856 37.6624L134.041 37.2094L134.003 36.4603L133.966 35.7113L124.781 36.1643L124.818 36.9133ZM134.003 36.4603L133.432 35.9738L121.932 49.4777L122.503 49.9643L123.074 50.4508L134.575 36.9469L134.003 36.4603ZM122.503 49.9643L121.909 50.421L135.378 67.9381L135.972 67.4813L136.567 67.0246L123.098 49.5075L122.503 49.9643ZM135.972 67.4813L135.935 66.7323L127.564 67.1452L127.601 67.8942L127.639 68.6433L136.01 68.2304L135.972 67.4813ZM127.601 67.8942L128.205 67.4503L118.446 54.1791L117.842 54.623L117.238 55.0668L126.997 68.3381L127.601 67.8942ZM117.842 54.623L117.272 54.1357L112.649 59.55L113.22 60.0373L113.79 60.5246L118.413 55.1102L117.842 54.623ZM113.22 60.0373L112.47 60.0743L112.9 68.6193L113.65 68.5823L114.399 68.5454L113.969 60.0004L113.22 60.0373ZM113.65 68.5823L113.612 67.8333L106.171 68.2003L106.209 68.9493L106.246 69.6984L113.687 69.3314L113.65 68.5823ZM146.514 64.5722L145.973 65.0918L145.979 65.0972L145.984 65.1024L146.514 64.5722ZM142.339 36.0492L142.302 35.3001L141.553 35.3371L141.59 36.0861L142.339 36.0492ZM149.78 35.6822L150.529 35.6452L150.492 34.8962L149.743 34.9331L149.78 35.6822ZM152.262 59.5103L151.666 59.9651L151.674 59.9758L151.682 59.9863L152.262 59.5103ZM160.914 58.9087L160.314 58.4592L160.312 58.461L160.914 58.9087ZM161.407 35.1088L161.369 34.3597L160.62 34.3967L160.658 35.1457L161.407 35.1088ZM168.848 34.7418L169.597 34.7048L169.559 33.9558L168.81 33.9927L168.848 34.7418ZM170.41 65.7828L170.448 66.5319L171.197 66.495L171.159 65.7459L170.41 65.7828ZM163.608 66.1183L162.86 66.1705L162.912 66.9036L163.646 66.8674L163.608 66.1183ZM163.004 57.5819L163.191 56.8559L162.182 56.5944L162.256 57.6341L163.004 57.5819ZM163.949 57.8267L164.694 57.907L164.763 57.2632L164.136 57.1007L163.949 57.8267ZM160.972 64.675L160.452 64.1331V64.1331L160.972 64.675ZM154.168 67.2832L154.13 66.5341C151.171 66.6801 148.837 65.8337 147.044 64.042L146.514 64.5722L145.984 65.1024C148.118 67.235 150.886 68.196 154.206 68.0323L154.168 67.2832ZM146.514 64.5722L147.054 64.0526C145.289 62.2178 144.274 59.5694 144.095 56.0087L143.346 56.0457L142.597 56.0826C142.788 59.885 143.885 62.9209 145.973 65.0918L146.514 64.5722ZM143.346 56.0457L144.095 56.0087L143.088 36.0122L142.339 36.0492L141.59 36.0861L142.597 56.0826L143.346 56.0457ZM142.339 36.0492L142.377 36.7982L149.818 36.4312L149.78 35.6822L149.743 34.9331L142.302 35.3001L142.339 36.0492ZM149.78 35.6822L149.031 35.7191L149.944 53.8555L150.693 53.8186L151.442 53.7816L150.529 35.6452L149.78 35.6822ZM150.693 53.8186L149.944 53.8555C150.077 56.5059 150.613 58.5869 151.666 59.9651L152.262 59.5103L152.857 59.0555C152.08 58.0375 151.57 56.3241 151.442 53.7816L150.693 53.8186ZM152.262 59.5103L151.682 59.9863C152.815 61.3635 154.432 61.9606 156.401 61.8635L156.363 61.1145L156.326 60.3654C154.729 60.4442 153.612 59.9718 152.841 59.0343L152.262 59.5103ZM156.363 61.1145L156.401 61.8635C158.595 61.7553 160.34 60.9405 161.517 59.3563L160.914 58.9087L160.312 58.461C159.452 59.6191 158.162 60.2748 156.326 60.3654L156.363 61.1145ZM160.914 58.9087L161.515 59.3582C162.714 57.7553 163.188 55.5729 163.054 52.9175L162.305 52.9545L161.556 52.9914C161.68 55.4515 161.226 57.2385 160.314 58.4592L160.914 58.9087ZM162.305 52.9545L163.054 52.9175L162.156 35.0718L161.407 35.1088L160.658 35.1457L161.556 52.9914L162.305 52.9545ZM161.407 35.1088L161.444 35.8578L168.885 35.4908L168.848 34.7418L168.81 33.9927L161.369 34.3597L161.407 35.1088ZM168.848 34.7418L168.099 34.7787L169.661 65.8198L170.41 65.7828L171.159 65.7459L169.597 34.7048L168.848 34.7418ZM170.41 65.7828L170.372 65.0338L163.571 65.3693L163.608 66.1183L163.646 66.8674L170.448 66.5319L170.41 65.7828ZM163.608 66.1183L164.357 66.0661L163.752 57.5297L163.004 57.5819L162.256 57.6341L162.86 66.1705L163.608 66.1183ZM163.004 57.5819L162.816 58.3079L163.761 58.5526L163.949 57.8267L164.136 57.1007L163.191 56.8559L163.004 57.5819ZM163.949 57.8267L163.203 57.7463C162.899 60.591 161.959 62.69 160.452 64.1331L160.972 64.675L161.491 65.2168C163.32 63.4652 164.364 60.9986 164.694 57.907L163.949 57.8267ZM160.972 64.675L160.452 64.1331C158.944 65.5776 156.863 66.3994 154.13 66.5341L154.168 67.2832L154.206 68.0323C157.208 67.8842 159.663 66.9671 161.491 65.2168L160.972 64.675ZM181.352 73.9842L180.603 74.0212L180.641 74.7702L181.39 74.7333L181.352 73.9842ZM179.351 34.2237L179.313 33.4747L178.564 33.5116L178.602 34.2607L179.351 34.2237ZM186.501 33.8711L187.249 33.8144L187.193 33.086L186.464 33.122L186.501 33.8711ZM187.009 40.4892L186.729 41.1848L187.849 41.6359L187.757 40.4326L187.009 40.4892ZM186.236 40.1777L185.514 39.9722L185.33 40.6211L185.956 40.8733L186.236 40.1777ZM189.754 34.8178L190.201 35.4206L190.204 35.4184L189.754 34.8178ZM203.319 34.5567L202.896 35.1755L202.902 35.1794L203.319 34.5567ZM208.033 40.2099L208.715 39.8992L208.715 39.8992L208.033 40.2099ZM208.794 56.489L208.087 56.2373L208.084 56.247L208.794 56.489ZM204.671 62.5779L204.193 61.9993L204.188 62.0039L204.671 62.5779ZM193.057 64.5493L192.807 65.2561L192.814 65.2585L193.057 64.5493ZM189.51 62.3933L188.985 62.9285L188.991 62.9339L188.996 62.9391L189.51 62.3933ZM187.355 58.9449L186.847 58.3931L186.488 58.7238L186.645 59.1862L187.355 58.9449ZM188.024 58.3292L188.773 58.2923L188.692 56.693L187.515 57.7774L188.024 58.3292ZM188.793 73.6172L188.831 74.3663L189.58 74.3293L189.542 73.5803L188.793 73.6172ZM200.565 56.2538L199.936 55.8447L199.934 55.8472L200.565 56.2538ZM199.813 41.3146L199.222 41.7752L199.227 41.7824L199.233 41.7895L199.813 41.3146ZM190.549 40.1981L191.001 40.7971L191.008 40.7917L191.015 40.7861L190.549 40.1981ZM188.161 43.6957L187.454 43.4456L187.451 43.4534L187.449 43.4613L188.161 43.6957ZM188.729 54.9728L188.043 55.2762V55.2762L188.729 54.9728ZM191.401 58.2792L190.996 58.9102L191.009 58.9183L191.022 58.926L191.401 58.2792ZM181.352 73.9842L182.101 73.9473L180.1 34.1868L179.351 34.2237L178.602 34.2607L180.603 74.0212L181.352 73.9842ZM179.351 34.2237L179.389 34.9728L186.539 34.6201L186.501 33.8711L186.464 33.122L179.313 33.4747L179.351 34.2237ZM186.501 33.8711L185.753 33.9277L186.261 40.5459L187.009 40.4892L187.757 40.4326L187.249 33.8144L186.501 33.8711ZM187.009 40.4892L187.289 39.7936L186.516 39.4821L186.236 40.1777L185.956 40.8733L186.729 41.1848L187.009 40.4892ZM186.236 40.1777L186.957 40.3832C187.579 38.1924 188.668 36.5562 190.201 35.4206L189.754 34.8178L189.307 34.2151C187.469 35.5767 186.212 37.5137 185.514 39.9722L186.236 40.1777ZM189.754 34.8178L190.204 35.4184C191.795 34.2274 193.691 33.5681 195.921 33.4581L195.884 32.7091L195.846 31.96C193.348 32.0832 191.158 32.8297 189.304 34.2173L189.754 34.8178ZM195.884 32.7091L195.921 33.4581C198.738 33.3192 201.046 33.9092 202.896 35.1754L203.319 34.5567L203.743 33.938C201.569 32.4501 198.92 31.8084 195.846 31.96L195.884 32.7091ZM203.319 34.5567L202.902 35.1794C204.829 36.4719 206.313 38.2447 207.351 40.5205L208.033 40.2099L208.715 39.8992C207.57 37.3877 205.911 35.3917 203.737 33.934L203.319 34.5567ZM208.033 40.2099L207.351 40.5205C208.398 42.817 209.001 45.4111 209.147 48.3132L209.896 48.2763L210.645 48.2394C210.491 45.1735 209.851 42.39 208.715 39.8992L208.033 40.2099ZM209.896 48.2763L209.147 48.3132C209.293 51.2118 208.935 53.8499 208.087 56.2373L208.794 56.489L209.501 56.7406C210.422 54.1457 210.799 51.3087 210.645 48.2394L209.896 48.2763ZM208.794 56.489L208.084 56.247C207.279 58.6136 205.982 60.5236 204.194 61.9993L204.671 62.5779L205.149 63.1565C207.166 61.4921 208.616 59.3427 209.504 56.7309L208.794 56.489ZM204.671 62.5779L204.188 62.0039C202.474 63.4459 200.237 64.2601 197.42 64.399L197.458 65.1481L197.496 65.8971C200.569 65.7455 203.141 64.8463 205.155 63.1519L204.671 62.5779ZM197.458 65.1481L197.42 64.399C195.959 64.4711 194.588 64.2829 193.3 63.8401L193.057 64.5493L192.814 65.2585C194.293 65.767 195.856 65.978 197.496 65.8971L197.458 65.1481ZM193.057 64.5493L193.307 63.8426C192.058 63.3992 190.966 62.7346 190.024 61.8475L189.51 62.3933L188.996 62.9391C190.093 63.9716 191.366 64.7444 192.807 65.256L193.057 64.5493ZM189.51 62.3933L190.035 61.8581C189.14 60.981 188.484 59.9331 188.065 58.7036L187.355 58.9449L186.645 59.1862C187.138 60.6312 187.918 61.8822 188.985 62.9285L189.51 62.3933ZM187.355 58.9449L187.864 59.4967L188.532 58.881L188.024 58.3292L187.515 57.7774L186.847 58.3931L187.355 58.9449ZM188.024 58.3292L187.274 58.3661L188.044 73.6542L188.793 73.6172L189.542 73.5803L188.773 58.2923L188.024 58.3292ZM188.793 73.6172L188.755 72.8682L181.314 73.2352L181.352 73.9842L181.39 74.7333L188.831 74.3663L188.793 73.6172ZM195.41 59.1887L195.447 59.9377C197.929 59.8153 199.872 58.715 201.196 56.6604L200.565 56.2538L199.934 55.8472C198.88 57.484 197.385 58.3403 195.372 58.4396L195.41 59.1887ZM200.565 56.2538L201.194 56.6629C202.535 54.5996 203.078 51.8929 202.913 48.6207L202.164 48.6576L201.415 48.6946C201.57 51.7778 201.047 54.1352 199.936 55.8447L200.565 56.2538ZM202.164 48.6576L202.913 48.6207C202.749 45.3498 201.938 42.7249 200.393 40.8396L199.813 41.3146L199.233 41.7895C200.503 43.3395 201.26 45.61 201.415 48.6946L202.164 48.6576ZM199.813 41.3146L200.405 40.8539C198.882 38.9005 196.837 37.9716 194.348 38.0943L194.386 38.8434L194.423 39.5924C196.43 39.4935 198.003 40.212 199.222 41.7752L199.813 41.3146ZM194.386 38.8434L194.348 38.0943C192.702 38.1755 191.268 38.6718 190.083 39.61L190.549 40.1981L191.015 40.7861C191.923 40.0672 193.046 39.6603 194.423 39.5924L194.386 38.8434ZM190.549 40.1981L190.098 39.599C188.906 40.497 188.035 41.7989 187.454 43.4456L188.161 43.6957L188.869 43.9458C189.376 42.5086 190.097 41.4787 191.001 40.7971L190.549 40.1981ZM188.161 43.6957L187.449 43.4613C186.906 45.1156 186.708 47.1077 186.824 49.4142L187.573 49.3773L188.322 49.3403C188.212 47.1515 188.406 45.356 188.874 43.9301L188.161 43.6957ZM187.573 49.3773L186.824 49.4142C186.94 51.7207 187.337 53.6836 188.043 55.2762L188.729 54.9728L189.414 54.6694C188.806 53.2967 188.432 51.5292 188.322 49.3403L187.573 49.3773ZM188.729 54.9728L188.043 55.2762C188.747 56.8641 189.724 58.0937 190.996 58.9102L191.401 58.2792L191.806 57.6482C190.83 57.0216 190.025 56.0469 189.414 54.6694L188.729 54.9728ZM191.401 58.2792L191.022 58.926C192.324 59.6897 193.809 60.0185 195.447 59.9377L195.41 59.1887L195.372 58.4396C193.988 58.5079 192.8 58.2303 191.78 57.6324L191.401 58.2792ZM223.627 62.5171L223.364 63.219L223.368 63.2207L223.627 62.5171ZM218.673 59.0319L219.263 58.5692V58.5692L218.673 59.0319ZM216.483 53.7205L216.411 52.9739L215.641 53.0474L215.739 53.8148L216.483 53.7205ZM224.081 52.9961L224.813 52.8366L224.671 52.1864L224.009 52.2496L224.081 52.9961ZM226.305 56.6742L226.752 56.0719V56.0719L226.305 56.6742ZM235.226 56.7587L235.625 57.3942L235.633 57.389L235.226 56.7587ZM235.992 52.2921L236.568 51.8131V51.8131L235.992 52.2921ZM229.599 50.3347L229.698 49.5913L229.688 49.5901L229.599 50.3347ZM222.001 48.7282L221.73 49.4273L221.742 49.4319L222.001 48.7282ZM217.954 45.8976L217.335 46.3205L217.34 46.3276L217.345 46.3347L217.954 45.8976ZM219.584 34.279L220.083 34.8387L220.085 34.8377L219.584 34.279ZM236.375 32.1105L236.079 32.7996L236.091 32.8043L236.375 32.1105ZM240.98 35.6129L240.375 36.0558L240.381 36.0643L240.388 36.0727L240.98 35.6129ZM243.284 40.8605L243.356 41.607L244.171 41.5287L244.021 40.7239L243.284 40.8605ZM235.802 41.5791L235.073 41.7518L235.224 42.3882L235.875 42.3256L235.802 41.5791ZM234.618 38.8986L234.011 39.3378V39.3378L234.618 38.8986ZM232.496 37.2551L232.195 37.9416L232.207 37.9472L232.22 37.9523L232.496 37.2551ZM225.541 38.0061L226.032 38.5732V38.5732L225.541 38.0061ZM225.028 42.8681L224.44 43.3335L224.451 43.347L224.462 43.3599L225.028 42.8681ZM227.13 44.1047L226.902 44.819L226.915 44.8233L226.929 44.827L227.13 44.1047ZM230.894 44.7931L230.802 45.5374L230.809 45.5383L230.817 45.539L230.894 44.7931ZM238.667 46.3911L238.401 47.0921L238.41 47.0955L238.419 47.0986L238.667 46.3911ZM242.83 49.216L242.215 49.6443L242.223 49.6556L242.231 49.6667L242.83 49.216ZM242.839 58.6559L242.232 58.2147L242.225 58.2252L242.839 58.6559ZM238.349 62.0824L238.634 62.7764L238.642 62.7732L238.349 62.0824ZM231.426 63.4727L231.388 62.7237C228.395 62.8713 225.902 62.5568 223.886 61.8135L223.627 62.5171L223.368 63.2207C225.627 64.0536 228.334 64.3761 231.464 64.2218L231.426 63.4727ZM223.627 62.5171L223.891 61.8153C221.901 61.0662 220.37 59.9792 219.263 58.5692L218.673 59.0319L218.083 59.4946C219.384 61.1515 221.156 62.388 223.364 63.2189L223.627 62.5171ZM218.673 59.0319L219.263 58.5692C218.146 57.1466 217.467 55.5047 217.227 53.6262L216.483 53.7205L215.739 53.8148C216.012 55.9513 216.792 57.8503 218.083 59.4946L218.673 59.0319ZM216.483 53.7205L216.555 54.4671L224.152 53.7427L224.081 52.9961L224.009 52.2496L216.411 52.9739L216.483 53.7205ZM224.081 52.9961L223.348 53.1557C223.733 54.9145 224.558 56.3121 225.859 57.2765L226.305 56.6742L226.752 56.0719C225.792 55.3607 225.135 54.3063 224.813 52.8366L224.081 52.9961ZM226.305 56.6742L225.859 57.2765C227.185 58.2594 229.016 58.6317 231.235 58.5223L231.198 57.7732L231.16 57.0241C229.116 57.125 227.686 56.7646 226.752 56.0719L226.305 56.6742ZM231.198 57.7732L231.235 58.5223C233.041 58.4332 234.53 58.0809 235.625 57.3942L235.226 56.7587L234.827 56.1232C234.039 56.6172 232.842 56.9412 231.16 57.0241L231.198 57.7732ZM235.226 56.7587L235.633 57.389C236.845 56.6071 237.425 55.4315 237.352 53.9732L236.603 54.0102L235.854 54.0471C235.901 54.9916 235.563 55.6483 234.819 56.1283L235.226 56.7587ZM236.603 54.0102L237.352 53.9732C237.31 53.147 237.064 52.4093 236.568 51.8131L235.992 52.2921L235.415 52.7711C235.664 53.0706 235.825 53.4783 235.854 54.0471L236.603 54.0102ZM235.992 52.2921L236.568 51.8131C236.055 51.1952 235.204 50.7665 234.172 50.4516L233.954 51.1689L233.736 51.8862C234.676 52.1732 235.184 52.4934 235.415 52.7711L235.992 52.2921ZM233.954 51.1689L234.172 50.4516C233.126 50.1324 231.626 49.848 229.698 49.5913L229.599 50.3347L229.501 51.0781C231.406 51.3316 232.809 51.6034 233.736 51.8862L233.954 51.1689ZM229.599 50.3347L229.688 49.5901C226.51 49.2075 224.042 48.6809 222.26 48.0245L222.001 48.7282L221.742 49.4319C223.681 50.1459 226.279 50.6903 229.51 51.0793L229.599 50.3347ZM222.001 48.7282L222.272 48.0292C220.494 47.3379 219.286 46.4673 218.563 45.4604L217.954 45.8976L217.345 46.3347C218.293 47.6541 219.783 48.6705 221.73 49.4271L222.001 48.7282ZM217.954 45.8976L218.573 45.4746C217.872 44.4505 217.458 43.1198 217.373 41.4391L216.624 41.4761L215.875 41.513C215.97 43.3976 216.442 45.0146 217.335 46.3205L217.954 45.8976ZM216.624 41.4761L217.373 41.4391C217.238 38.7528 218.138 36.5752 220.083 34.8387L219.584 34.279L219.084 33.7193C216.791 35.7659 215.718 38.3864 215.875 41.513L216.624 41.4761ZM219.584 34.279L220.085 34.8377C222.063 33.0643 225.098 32.0191 229.308 31.8114L229.271 31.0624L229.233 30.3133C224.84 30.53 221.416 31.6292 219.083 33.7203L219.584 34.279ZM229.271 31.0624L229.308 31.8114C232.019 31.6777 234.266 32.0203 236.079 32.7995L236.375 32.1105L236.67 31.4216C234.591 30.528 232.102 30.1718 229.233 30.3133L229.271 31.0624ZM236.375 32.1105L236.091 32.8043C237.92 33.555 239.339 34.6413 240.375 36.0558L240.98 35.6129L241.585 35.1701C240.369 33.51 238.717 32.2614 236.659 31.4168L236.375 32.1105ZM240.98 35.6129L240.388 36.0727C241.472 37.4677 242.194 39.104 242.546 40.997L243.284 40.8605L244.021 40.7239C243.628 38.6134 242.814 36.7513 241.572 35.1531L240.98 35.6129ZM243.284 40.8605L243.211 40.1139L235.73 40.8326L235.802 41.5791L235.875 42.3256L243.356 41.607L243.284 40.8605ZM235.802 41.5791L236.532 41.4064C236.266 40.288 235.835 39.3008 235.226 38.4594L234.618 38.8986L234.011 39.3378C234.488 39.9969 234.846 40.7967 235.073 41.7518L235.802 41.5791ZM234.618 38.8986L235.226 38.4594C234.598 37.5918 233.775 36.9553 232.772 36.5579L232.496 37.2551L232.22 37.9523C232.961 38.2459 233.553 38.7051 234.011 39.3378L234.618 38.8986ZM232.496 37.2551L232.797 36.5686C231.796 36.1283 230.657 35.9539 229.403 36.0157L229.441 36.7648L229.479 37.5138C230.55 37.461 231.448 37.6134 232.195 37.9416L232.496 37.2551ZM229.441 36.7648L229.403 36.0157C227.578 36.1058 226.084 36.5425 225.049 37.439L225.541 38.0061L226.032 38.5732C226.709 37.9866 227.817 37.5958 229.479 37.5138L229.441 36.7648ZM225.541 38.0061L225.049 37.439C224.013 38.3361 223.525 39.5135 223.595 40.8992L224.344 40.8622L225.093 40.8253C225.046 39.8857 225.355 39.1591 226.032 38.5732L225.541 38.0061ZM224.344 40.8622L223.595 40.8992C223.642 41.8341 223.908 42.6626 224.44 43.3335L225.028 42.8681L225.615 42.4026C225.317 42.0267 225.128 41.518 225.093 40.8253L224.344 40.8622ZM225.028 42.8681L224.462 43.3599C225.037 44.0211 225.878 44.4917 226.902 44.819L227.13 44.1047L227.357 43.3904C226.486 43.1119 225.926 42.7581 225.593 42.3763L225.028 42.8681ZM227.13 44.1047L226.929 44.827C227.925 45.1053 229.22 45.3403 230.802 45.5374L230.894 44.7931L230.986 44.0489C229.44 43.8563 228.226 43.6324 227.331 43.3824L227.13 44.1047ZM230.894 44.7931L230.817 45.539C234.068 45.8792 236.586 46.4028 238.401 47.0921L238.667 46.3911L238.933 45.69C236.945 44.9352 234.282 44.3936 230.971 44.0473L230.894 44.7931ZM238.667 46.3911L238.419 47.0986C240.266 47.7481 241.497 48.6144 242.215 49.6443L242.83 49.216L243.445 48.7877C242.488 47.4139 240.944 46.3968 238.915 45.6836L238.667 46.3911ZM242.83 49.216L242.231 49.6667C243 50.6882 243.442 51.9702 243.521 53.5524L244.27 53.5155L245.019 53.4785C244.927 51.6505 244.409 50.0662 243.429 48.7653L242.83 49.216ZM244.27 53.5155L243.521 53.5524C243.613 55.3766 243.175 56.9171 242.232 58.2147L242.839 58.6559L243.446 59.097C244.611 57.4936 245.127 55.6071 245.019 53.4785L244.27 53.5155ZM242.839 58.6559L242.225 58.2252C241.306 59.5361 239.933 60.5988 238.057 61.3915L238.349 62.0824L238.642 62.7732C240.722 61.8945 242.342 60.6729 243.453 59.0866L242.839 58.6559ZM238.349 62.0824L238.064 61.3883C236.22 62.1436 234 62.5949 231.388 62.7237L231.426 63.4727L231.464 64.2218C234.201 64.0868 236.596 63.6112 238.634 62.7764L238.349 62.0824ZM252.587 70.937L251.864 70.7379L251.589 71.7371L252.625 71.6861L252.587 70.937ZM255.148 61.6035L255.871 61.8026L256.145 60.8034L255.11 60.8544L255.148 61.6035ZM251.601 61.7784L250.852 61.8153L250.89 62.5644L251.639 62.5274L251.601 61.7784ZM251.192 53.6403L251.154 52.8912L250.405 52.9282L250.443 53.6772L251.192 53.6403ZM259.679 53.2217L260.428 53.1847L260.391 52.4357L259.642 52.4726L259.679 53.2217ZM260.042 60.4297L260.756 60.6608L260.798 60.5301L260.791 60.3928L260.042 60.4297ZM256.714 70.7335L256.752 71.4825L257.269 71.457L257.428 70.9646L256.714 70.7335ZM252.587 70.937L253.31 71.1361L255.871 61.8026L255.148 61.6035L254.424 61.4044L251.864 70.7379L252.587 70.937ZM255.148 61.6035L255.11 60.8544L251.564 61.0293L251.601 61.7784L251.639 62.5274L255.185 62.3525L255.148 61.6035ZM251.601 61.7784L252.351 61.7414L251.941 53.6033L251.192 53.6403L250.443 53.6772L250.852 61.8153L251.601 61.7784ZM251.192 53.6403L251.23 54.3893L259.717 53.9707L259.679 53.2217L259.642 52.4726L251.154 52.8912L251.192 53.6403ZM259.679 53.2217L258.93 53.2586L259.293 60.4667L260.042 60.4297L260.791 60.3928L260.428 53.1847L259.679 53.2217ZM260.042 60.4297L259.328 60.1986L256.001 70.5023L256.714 70.7335L257.428 70.9646L260.756 60.6608L260.042 60.4297ZM256.714 70.7335L256.677 69.9844L252.549 70.188L252.587 70.937L252.625 71.6861L256.752 71.4825L256.714 70.7335Z" fill="white"/>
<defs>
<linearGradient id="paint0_linear_4671_136" x1="154.971" y1="69.2516" x2="141.471" y2="-8.24839" gradientUnits="userSpaceOnUse">
<stop offset="0.564525" stop-color="#003E61"/>
<stop offset="0.900975" stop-color="#007FC7"/>
</linearGradient>
</defs>
</svg>
