<svg width="228" height="89" viewBox="0 0 228 89" fill="none" xmlns="http://www.w3.org/2000/svg">
<path d="M11.1837 74.1263L3.47535 74.5131L0.763794 22.6683L223.533 11.488L226.245 63.3328L218.078 63.7426" stroke="#00314D"/>
<path d="M209.291 64.1835L21.5684 73.6048" stroke="#004267"/>
<path d="M21.6717 69.5878L21.3798 70.2774V70.2774L21.6717 69.5878ZM15.5425 64.8686L14.9332 65.3037L14.9378 65.31L14.9425 65.3163L15.5425 64.8686ZM12.7118 57.4285L12.628 56.6831L11.8673 56.7657L11.9683 57.5246L12.7118 57.4285ZM20.362 56.598L21.0999 56.4657L20.9738 55.777L20.2782 55.8525L20.362 56.598ZM22.1069 61.0598L21.4921 61.4871L21.4968 61.4939L21.5018 61.5006L22.1069 61.0598ZM25.4511 63.7557L25.1505 64.4416L25.1625 64.4469L25.1747 64.4517L25.4511 63.7557ZM34.4803 63.6752L34.7609 64.3717L34.7677 64.369L34.7743 64.3662L34.4803 63.6752ZM37.0037 61.7487L36.3844 61.3232L36.3812 61.3279L37.0037 61.7487ZM36.8819 55.9859L36.2565 56.3977L36.2608 56.4042L36.2652 56.4105L36.8819 55.9859ZM33.8583 53.8575L33.5653 54.5466L33.5729 54.5499L33.5806 54.553L33.8583 53.8575ZM27.3586 52.1277L27.4909 51.3901L27.487 51.3894L27.3586 52.1277ZM19.0266 49.9025L18.7312 50.5907L18.7419 50.5951L19.0266 49.9025ZM14.3586 46.3956L13.7407 46.8186L13.7458 46.8258L14.3586 46.3956ZM14.1492 34.4023L14.7958 34.7849L14.7994 34.7787L14.1492 34.4023ZM19.0438 29.8573L19.3899 30.524L19.3994 30.5189L19.0438 29.8573ZM35.3923 29.3117L35.078 29.9914L35.0871 29.9955L35.3923 29.3117ZM41.0474 33.8786L40.4376 34.313V34.313L41.0474 33.8786ZM43.8542 40.8536L43.9269 41.6002L44.7275 41.5253L44.5939 40.7319L43.8542 40.8536ZM36.2562 41.5652L35.518 41.6958L35.641 42.3762L36.3289 42.3118L36.2562 41.5652ZM34.6574 37.6791L34.0412 38.1044L34.0465 38.1119L34.0519 38.1194L34.6574 37.6791ZM31.6159 35.2018L31.2895 35.8757L31.3023 35.882L31.3154 35.8877L31.6159 35.2018ZM22.0503 36.1819L22.5418 36.7502L22.5442 36.7481L22.0503 36.1819ZM21.2897 42.919L20.6932 43.3714L20.7012 43.3818L20.7095 43.392L21.2897 42.919ZM24.2372 44.7015L23.9947 45.4101L24.0036 45.4132L24.0125 45.416L24.2372 44.7015ZM30.0184 46.0576L29.8824 46.7945L29.892 46.7963L29.9018 46.7979L30.0184 46.0576ZM38.9496 48.6039L39.2787 47.9313V47.9313L38.9496 48.6039ZM43.816 52.5674L43.189 52.9766V52.9766L43.816 52.5674ZM43.9121 64.6244L44.5474 65.0256L44.5513 65.0193L43.9121 64.6244ZM38.7238 69.1251L39.0475 69.8029L39.057 69.7982L38.7238 69.1251ZM30.6013 70.9687L30.5627 70.2197C27.2389 70.3781 24.3798 69.9275 21.9636 68.8981L21.6717 69.5878L21.3798 70.2774C24.0483 71.4143 27.1423 71.8844 30.6398 71.7178L30.6013 70.9687ZM21.6717 69.5878L21.9636 68.8981C19.5342 67.8631 17.601 66.3698 16.1426 64.4209L15.5425 64.8686L14.9425 65.3163C16.5716 67.4934 18.7245 69.1461 21.3798 70.2774L21.6717 69.5878ZM15.5425 64.8686L16.1519 64.4336C14.7247 62.4415 13.8212 60.081 13.4554 57.3324L12.7118 57.4285L11.9683 57.5246C12.3628 60.489 13.3464 63.0886 14.9332 65.3037L15.5425 64.8686ZM12.7118 57.4285L12.7956 58.174L20.4458 57.3435L20.362 56.598L20.2782 55.8525L12.628 56.6831L12.7118 57.4285ZM20.362 56.598L19.6241 56.7303C19.9635 58.5839 20.579 60.1777 21.4921 61.4871L22.1069 61.0598L22.7218 60.6326C21.9569 59.5358 21.4091 58.155 21.0999 56.4657L20.362 56.598ZM22.1069 61.0598L21.5018 61.5006C22.4572 62.8081 23.6767 63.7917 25.1505 64.4416L25.4511 63.7557L25.7516 63.0698C24.5221 62.5277 23.5122 61.714 22.7121 60.619L22.1069 61.0598ZM25.4511 63.7557L25.1747 64.4517C26.6866 65.0565 28.4427 65.2963 30.421 65.2021L30.3824 64.4531L30.3439 63.7041C28.5239 63.7908 26.9925 63.5657 25.7275 63.0597L25.4511 63.7557ZM30.3824 64.4531L30.421 65.2021C32.1035 65.122 33.5571 64.8526 34.7609 64.3717L34.4803 63.6752L34.1996 62.9788C33.1954 63.3799 31.9171 63.6292 30.3439 63.7041L30.3824 64.4531ZM34.4803 63.6752L34.7743 64.3662C36.0117 63.8438 36.984 63.1215 37.6261 62.1696L37.0037 61.7487L36.3812 61.3279C35.9404 61.9813 35.2304 62.5434 34.1862 62.9843L34.4803 63.6752ZM37.0037 61.7487L37.6229 62.1743C38.3063 61.1777 38.5975 60.0074 38.5304 58.7043L37.7813 58.74L37.0321 58.7757C37.0847 59.7976 36.8575 60.6332 36.3844 61.3232L37.0037 61.7487ZM37.7813 58.74L38.5304 58.7043C38.4701 57.5322 38.1311 56.4767 37.4986 55.5614L36.8819 55.9859L36.2652 56.4105C36.7242 57.0747 36.9847 57.8552 37.0321 58.7757L37.7813 58.74ZM36.8819 55.9859L37.5072 55.5742C36.8385 54.5626 35.6685 53.7784 34.1361 53.162L33.8583 53.8575L33.5806 54.553C34.9841 55.1175 35.8298 55.7522 36.2565 56.3977L36.8819 55.9859ZM33.8583 53.8575L34.1514 53.1683C32.6039 52.506 30.3722 51.9174 27.4909 51.3901L27.3586 52.1277L27.2262 52.8653C30.0714 53.386 32.1729 53.9506 33.5653 54.5466L33.8583 53.8575ZM27.3586 52.1277L27.487 51.3894C24.0646 50.7818 21.3458 50.0519 19.3113 49.2098L19.0266 49.9025L18.7419 50.5951C20.9155 51.4948 23.7514 52.2484 27.2301 52.866L27.3586 52.1277ZM19.0266 49.9025L19.3219 49.2143C17.3044 48.3428 15.8759 47.2497 14.9714 45.9655L14.3586 46.3956L13.7458 46.8258C14.8532 48.398 16.5368 49.6427 18.7313 50.5906L19.0266 49.9025ZM14.3586 46.3956L14.9764 45.9727C14.0656 44.6472 13.5326 42.9337 13.4222 40.7882L12.6731 40.8239L11.9239 40.8596C12.0449 43.2091 12.6356 45.2101 13.7408 46.8186L14.3586 46.3956ZM12.6731 40.8239L13.4222 40.7882C13.3053 38.5168 13.7699 36.5245 14.7958 34.7849L14.1492 34.4023L13.5026 34.0197C12.3129 36.0371 11.7935 38.3258 11.9239 40.8596L12.6731 40.8239ZM14.1492 34.4023L14.7994 34.7787C15.8269 32.9972 17.3469 31.5776 19.3898 30.5239L19.0438 29.8573L18.6979 29.1906C16.4261 30.3624 14.683 31.9729 13.499 34.0259L14.1492 34.4023ZM19.0438 29.8573L19.3994 30.5189C21.4344 29.4317 23.9478 28.8013 26.9664 28.6575L26.9278 27.9085L26.8893 27.1595C23.7066 27.3111 20.964 27.9798 18.6883 29.1957L19.0438 29.8573ZM26.9278 27.9085L26.9664 28.6575C30.172 28.5048 32.866 28.9625 35.078 29.9913L35.3923 29.3117L35.7066 28.632C33.2215 27.4761 30.2725 26.9984 26.8893 27.1595L26.9278 27.9085ZM35.3923 29.3117L35.0871 29.9955C37.3184 30.9973 39.0958 32.4363 40.4376 34.313L41.0474 33.8786L41.6571 33.4441C40.1519 31.3388 38.1593 29.7332 35.6975 28.6278L35.3923 29.3117ZM41.0474 33.8786L40.4376 34.313C41.788 36.2017 42.6837 38.4172 43.1144 40.9754L43.8542 40.8536L44.5939 40.7319C44.1292 37.972 43.1538 35.5375 41.6571 33.4441L41.0474 33.8786ZM43.8542 40.8536L43.7814 40.1071L36.1834 40.8186L36.2562 41.5652L36.3289 42.3118L43.9269 41.6002L43.8542 40.8536ZM36.2562 41.5652L36.9943 41.4345C36.7052 39.8357 36.1327 38.431 35.2629 37.2387L34.6574 37.6791L34.0519 38.1194C34.7706 39.1045 35.2639 40.2905 35.518 41.6958L36.2562 41.5652ZM34.6574 37.6791L35.2736 37.2537C34.435 36.0433 33.3094 35.1301 31.9165 34.516L31.6159 35.2018L31.3154 35.8877C32.4668 36.3954 33.3688 37.1338 34.0412 38.1044L34.6574 37.6791ZM31.6159 35.2018L31.9423 34.5279C30.5666 33.8581 28.9445 33.5877 27.1081 33.6751L27.1467 34.4242L27.1852 35.1732C28.837 35.0945 30.1945 35.3426 31.2895 35.8757L31.6159 35.2018ZM27.1467 34.4242L27.1081 33.6751C24.8254 33.7839 22.9468 34.405 21.5563 35.6156L22.0503 36.1819L22.5442 36.7481C23.608 35.8219 25.127 35.2712 27.1852 35.1732L27.1467 34.4242ZM22.0503 36.1819L21.5587 35.6136C20.187 36.798 19.546 38.3517 19.6412 40.2006L20.3903 40.1649L21.1395 40.1293C21.0671 38.7231 21.5327 37.6215 22.5418 36.7502L22.0503 36.1819ZM20.3903 40.1649L19.6412 40.2006C19.7048 41.4361 20.0385 42.5107 20.6932 43.3714L21.2897 42.919L21.8862 42.4666C21.4574 41.9028 21.1916 41.1414 21.1395 40.1293L20.3903 40.1649ZM21.2897 42.919L20.7095 43.392C21.4167 44.2575 22.5498 44.9114 23.9947 45.4101L24.2372 44.7015L24.4796 43.9928C23.1556 43.5358 22.3237 43.0013 21.87 42.4459L21.2897 42.919ZM24.2372 44.7015L24.0125 45.416C25.4376 45.8687 27.399 46.3274 29.8824 46.7945L30.0184 46.0576L30.1544 45.3207C27.6944 44.8579 25.8017 44.4125 24.4619 43.9869L24.2372 44.7015ZM30.0184 46.0576L29.9018 46.7979C33.5838 47.3911 36.4805 48.2239 38.6205 49.2765L38.9496 48.6039L39.2787 47.9313C36.9542 46.788 33.8967 45.9234 30.135 45.3173L30.0184 46.0576ZM38.9496 48.6039L38.6205 49.2765C40.7724 50.3348 42.2723 51.5776 43.189 52.9766L43.816 52.5674L44.4431 52.1582C43.3358 50.4683 41.5915 49.0688 39.2787 47.9313L38.9496 48.6039ZM43.816 52.5674L43.189 52.9766C44.1196 54.397 44.6437 56.064 44.7434 58.0005L45.4925 57.9648L46.2417 57.9291C46.13 55.7581 45.5364 53.8268 44.4431 52.1582L43.816 52.5674ZM45.4925 57.9648L44.7434 58.0005C44.8662 60.386 44.3677 62.4522 43.2729 64.2295L43.9121 64.6244L44.5513 65.0193C45.8231 62.9547 46.3782 60.5812 46.2417 57.9291L45.4925 57.9648ZM43.9121 64.6244L43.2768 64.2232C42.1749 65.9731 40.5578 67.3861 38.3905 68.4521L38.7238 69.1251L39.057 69.7982C41.437 68.6276 43.2788 67.0402 44.5474 65.0256L43.9121 64.6244ZM38.7238 69.1251L38.4001 68.4475C36.2328 69.4756 33.6267 70.0738 30.5627 70.2197L30.6013 70.9687L30.6398 71.7178C33.8546 71.5646 36.6635 70.9338 39.0475 69.8028L38.7238 69.1251ZM61.4024 67.2874L61.0533 67.9499L61.0617 67.9542L61.4024 67.2874ZM55.7606 61.8459L55.11 62.2169L55.1148 62.225L55.7606 61.8459ZM54.8839 44.8149L54.2024 44.499L54.2005 44.5031L54.8839 44.8149ZM59.9393 38.8638L59.5239 38.2379L59.5239 38.2379L59.9393 38.8638ZM80.2283 41.277L79.6469 41.7487L79.6529 41.7561L79.659 41.7632L80.2283 41.277ZM82.9931 47.4383L83.0713 48.1844L83.8726 48.1035L83.7317 47.31L82.9931 47.4383ZM75.34 48.2107L74.6059 48.3621L74.745 49.0247L75.4182 48.9568L75.34 48.2107ZM72.7841 43.8458L72.3212 44.434L72.3313 44.442L72.3417 44.4496L72.7841 43.8458ZM62.7863 45.4874L63.4117 45.9039L63.4159 45.8975L62.7863 45.4874ZM63.5552 60.4258L64.1347 59.9519V59.9519L63.5552 60.4258ZM73.7279 61.0483L73.2153 60.4988L73.2068 60.5069L73.7279 61.0483ZM75.7439 56.0577L75.7394 55.3079L75.0448 55.3094L74.9957 56.0019L75.7439 56.0577ZM83.4359 56.041L84.1841 56.0985L84.2433 55.2893L83.4315 55.2911L83.4359 56.041ZM81.3844 62.6065L82.0197 63.0077V63.0077L81.3844 62.6065ZM76.6031 67.0878L76.9576 67.7501L76.9676 67.7446L76.6031 67.0878ZM69.5851 68.8788L69.5466 68.1298C66.5541 68.2723 63.9614 67.7594 61.743 66.6207L61.4024 67.2874L61.0617 67.9542C63.5524 69.2327 66.4149 69.7807 69.6237 69.6278L69.5851 68.8788ZM61.4024 67.2874L61.7514 66.625C59.5227 65.4453 57.7429 63.7317 56.4063 61.4667L55.7606 61.8459L55.1148 62.225C56.5876 64.7207 58.569 66.6348 61.0533 67.9498L61.4024 67.2874ZM55.7606 61.8459L56.411 61.4748C55.114 59.2128 54.3721 56.5136 54.2095 53.3543L53.4604 53.39L52.7112 53.4256C52.8837 56.7765 53.6753 59.7145 55.1101 62.2169L55.7606 61.8459ZM53.4604 53.39L54.2095 53.3543C54.0469 50.1946 54.5092 47.4595 55.5673 45.1268L54.8839 44.8149L54.2005 44.5031C53.0255 47.0936 52.5388 50.0752 52.7112 53.4256L53.4604 53.39ZM54.8839 44.8149L55.5654 45.1309C56.6629 42.7499 58.258 40.8755 60.3547 39.4898L59.9393 38.8638L59.5239 38.2379C57.1868 39.7825 55.4117 41.8755 54.2024 44.499L54.8839 44.8149ZM59.9393 38.8638L60.3547 39.4898C62.442 38.1103 64.9654 37.3359 67.9542 37.1935L67.9157 36.4445L67.8771 35.6955C64.6646 35.8485 61.8705 36.687 59.5239 38.2379L59.9393 38.8638ZM67.9157 36.4445L67.9542 37.1935C70.501 37.0722 72.7608 37.4148 74.7481 38.2015L75.022 37.5045L75.2959 36.8074C73.0792 35.9299 70.6014 35.5658 67.8771 35.6955L67.9157 36.4445ZM75.022 37.5045L74.7481 38.2015C76.7355 38.9883 78.3632 40.1704 79.6469 41.7487L80.2283 41.277L80.8096 40.8053C79.3558 39.0179 77.5127 37.685 75.2959 36.8074L75.022 37.5045ZM80.2283 41.277L79.659 41.7632C80.964 43.288 81.8365 45.2121 82.2546 47.5666L82.9931 47.4383L83.7317 47.31C83.2743 44.734 82.3036 42.5506 80.7975 40.7908L80.2283 41.277ZM82.9931 47.4383L82.915 46.6923L75.2618 47.4647L75.34 48.2107L75.4182 48.9568L83.0713 48.1844L82.9931 47.4383ZM75.34 48.2107L76.0741 48.0594C75.6342 45.964 74.7035 44.326 73.2266 43.242L72.7841 43.8458L72.3417 44.4496C73.4491 45.2625 74.2222 46.5345 74.6059 48.3621L75.34 48.2107ZM72.7841 43.8458L73.2471 43.2576C71.8321 42.1427 70.129 41.6482 68.1883 41.7406L68.2268 42.4896L68.2654 43.2386C69.8904 43.1612 71.2255 43.5708 72.3212 44.434L72.7841 43.8458ZM68.2268 42.4896L68.1883 41.7406C65.5643 41.8656 63.5218 42.9761 62.1567 45.0773L62.7863 45.4874L63.4159 45.8975C64.4988 44.2305 66.0834 43.3426 68.2654 43.2386L68.2268 42.4896ZM62.7863 45.4874L62.1609 45.0709C60.8152 47.0963 60.2751 49.7866 60.4434 53.0573L61.1926 53.0217L61.9417 52.986C61.783 49.9016 62.3053 47.569 63.4116 45.9039L62.7863 45.4874ZM61.1926 53.0217L60.4434 53.0573C60.6137 56.3644 61.4275 59.0107 62.9757 60.8997L63.5552 60.4258L64.1347 59.9519C62.8639 58.4013 62.1026 56.1115 61.9417 52.986L61.1926 53.0217ZM63.5552 60.4258L62.9757 60.8997C64.5504 62.821 66.6951 63.7074 69.3125 63.5827L69.274 62.8337L69.2354 62.0847C67.0469 62.1889 65.379 61.47 64.1347 59.9519L63.5552 60.4258ZM69.274 62.8337L69.3125 63.5827C71.2875 63.4887 72.9525 62.8363 74.249 61.5897L73.7279 61.0483L73.2068 60.5069C72.208 61.4673 70.9038 62.0052 69.2354 62.0847L69.274 62.8337ZM73.7279 61.0483L74.2405 61.5978C75.6094 60.3224 76.3262 58.453 76.4922 56.1136L75.7439 56.0577L74.9957 56.0019C74.8464 58.1058 74.2192 59.5636 73.2153 60.4989L73.7279 61.0483ZM75.7439 56.0577L75.7484 56.8076L83.4404 56.7908L83.4359 56.041L83.4315 55.2911L75.7394 55.3079L75.7439 56.0577ZM83.4359 56.041L82.6878 55.9835C82.5132 58.3714 81.8616 60.4388 80.7492 62.2053L81.3844 62.6065L82.0197 63.0077C83.2778 61.0098 83.9939 58.7002 84.1841 56.0985L83.4359 56.041ZM81.3844 62.6065L80.7492 62.2053C79.633 63.9777 78.1336 65.3849 76.2385 66.4311L76.6031 67.0878L76.9676 67.7446C79.0771 66.58 80.7653 64.9996 82.0197 63.0077L81.3844 62.6065ZM76.6031 67.0878L76.2486 66.4256C74.3576 67.4319 72.1298 68.0068 69.5466 68.1298L69.5851 68.8788L69.6237 69.6278C72.3891 69.4961 74.8399 68.877 76.9575 67.75L76.6031 67.0878ZM91.5432 67.1337L90.794 67.1694L90.8326 67.9184L91.5818 67.8827L91.5432 67.1337ZM89.9455 36.0944L89.907 35.3454L89.1578 35.3811L89.1964 36.1301L89.9455 36.0944ZM96.922 35.7621L97.6694 35.7012L97.6077 34.9786L96.8834 35.0131L96.922 35.7621ZM97.6554 44.3509L97.5594 45.0942L98.482 45.2169L98.4029 44.29L97.6554 44.3509ZM97.0099 44.2651L96.2638 44.1851L96.1885 44.912L96.9139 45.0084L97.0099 44.2651ZM99.294 37.6885L98.7298 37.1922L98.7296 37.1925L99.294 37.6885ZM107.387 35.2637L108.136 35.228L108.097 34.479L107.348 34.5147L107.387 35.2637ZM107.716 41.6575L107.754 42.4065L108.503 42.3709L108.465 41.6219L107.716 41.6575ZM100.891 42.6818L100.552 42.0118V42.0118L100.891 42.6818ZM98.6215 45.0041L97.9436 44.6804L97.9391 44.6902L98.6215 45.0041ZM98.9847 66.7792L99.0233 67.5282L99.7724 67.4926L99.7339 66.7436L98.9847 66.7792ZM91.5432 67.1337L92.2923 67.098L90.6947 36.0587L89.9455 36.0944L89.1964 36.1301L90.794 67.1694L91.5432 67.1337ZM89.9455 36.0944L89.9841 36.8434L96.9605 36.5111L96.922 35.7621L96.8834 35.0131L89.907 35.3454L89.9455 36.0944ZM96.922 35.7621L96.1745 35.8231L96.908 44.4119L97.6554 44.3509L98.4029 44.29L97.6694 35.7012L96.922 35.7621ZM97.6554 44.3509L97.7515 43.6076L97.106 43.5218L97.0099 44.2651L96.9139 45.0084L97.5594 45.0942L97.6554 44.3509ZM97.0099 44.2651L97.7561 44.3452C98.061 41.4031 98.7964 39.3933 99.8584 38.1846L99.294 37.6885L98.7296 37.1925C97.3692 38.7407 96.5819 41.1153 96.2638 44.1851L97.0099 44.2651ZM99.294 37.6885L99.8582 38.1848C100.948 36.9461 102.49 36.2478 104.576 36.1484L104.538 35.3994L104.499 34.6504C102.09 34.7651 100.136 35.5929 98.7298 37.1922L99.294 37.6885ZM104.538 35.3994L104.576 36.1484L107.425 36.0127L107.387 35.2637L107.348 34.5147L104.499 34.6504L104.538 35.3994ZM107.387 35.2637L106.637 35.2994L106.967 41.6932L107.716 41.6575L108.465 41.6219L108.136 35.228L107.387 35.2637ZM107.716 41.6575L107.677 40.9085L104.77 41.047L104.809 41.796L104.847 42.545L107.754 42.4065L107.716 41.6575ZM104.809 41.796L104.77 41.047C103.114 41.1259 101.697 41.4353 100.552 42.0118L100.891 42.6818L101.231 43.3518C102.131 42.8986 103.325 42.6175 104.847 42.545L104.809 41.796ZM100.891 42.6818L100.552 42.0118C99.3813 42.6013 98.5056 43.4971 97.9437 44.6804L98.6215 45.0041L99.2994 45.3278C99.719 44.4444 100.357 43.792 101.231 43.3518L100.891 42.6818ZM98.6215 45.0041L97.9391 44.6902C97.4175 45.8308 97.2287 47.2539 97.3141 48.9121L98.0632 48.8764L98.8124 48.8408C98.7342 47.3214 98.9176 46.163 99.304 45.318L98.6215 45.0041ZM98.0632 48.8764L97.3141 48.9121L98.2356 66.8149L98.9847 66.7792L99.7339 66.7436L98.8124 48.8408L98.0632 48.8764ZM98.9847 66.7792L98.9462 66.0302L91.5046 66.3847L91.5432 67.1337L91.5818 67.8827L99.0233 67.5282L98.9847 66.7792ZM120.612 64.4672L120.263 65.1296L120.272 65.134L120.612 64.4672ZM115.029 59.0228L114.378 59.3938V59.3938L115.029 59.0228ZM114.152 41.9919L114.835 42.3038L114.837 42.2993L114.152 41.9919ZM119.091 36.0464L118.676 35.4204L118.671 35.4235L119.091 36.0464ZM134.785 35.2406L134.434 35.9021L134.439 35.9048L134.785 35.2406ZM140.252 40.6904L140.91 40.3318V40.3318L140.252 40.6904ZM142.602 51.2417L142.641 51.9907L143.39 51.955L143.351 51.206L142.602 51.2417ZM120.568 52.2912L120.53 51.5422L119.737 51.5799L119.823 52.3695L120.568 52.2912ZM123.095 58.3473L122.576 58.8875L122.584 58.8949L122.592 58.9022L123.095 58.3473ZM132.619 58.8259L133.071 59.4257L133.076 59.4223L132.619 58.8259ZM134.78 55.5182L134.787 54.7684L134.2 54.7606L134.053 55.3277L134.78 55.5182ZM142.42 55.6205L143.151 55.7895L143.357 54.8832L142.427 54.8707L142.42 55.6205ZM137.73 63.0109L137.272 62.4154L137.267 62.4187L137.73 63.0109ZM120.311 47.2923L119.563 47.2319L119.497 48.0819L120.349 48.0413L120.311 47.2923ZM134.671 46.6084L134.709 47.3574L135.506 47.3194L135.416 46.5267L134.671 46.6084ZM132.232 41.1307L131.739 41.6933L131.748 41.7011L132.232 41.1307ZM122.41 41.6568L121.861 41.1442L121.853 41.1524L122.41 41.6568ZM128.795 66.0586L128.756 65.3095C125.764 65.4521 123.171 64.9391 120.953 63.8004L120.612 64.4672L120.272 65.134C122.762 66.4125 125.625 66.9604 128.834 66.8076L128.795 66.0586ZM120.612 64.4672L120.961 63.8048C118.735 62.6262 116.976 60.9143 115.679 58.6518L115.029 59.0228L114.378 59.3938C115.813 61.8958 117.777 63.8135 120.263 65.1296L120.612 64.4672ZM115.029 59.0228L115.679 58.6518C114.382 56.3898 113.64 53.6905 113.477 50.5312L112.728 50.5669L111.979 50.6026C112.152 53.9534 112.943 56.8914 114.378 59.3938L115.029 59.0228ZM112.728 50.5669L113.477 50.5312C113.315 47.3716 113.777 44.6365 114.835 42.3037L114.152 41.9919L113.468 41.6801C112.293 44.2706 111.807 47.2522 111.979 50.6026L112.728 50.5669ZM114.152 41.9919L114.837 42.2993C115.897 39.9212 117.454 38.0509 119.511 36.6692L119.091 36.0464L118.671 35.4235C116.371 36.9685 114.636 39.0619 113.466 41.6845L114.152 41.9919ZM119.091 36.0464L119.506 36.6723C121.596 35.291 124.082 34.5201 126.99 34.3816L126.951 33.6326L126.913 32.8836C123.774 33.0331 121.019 33.8713 118.676 35.4204L119.091 36.0464ZM126.951 33.6326L126.99 34.3816C129.82 34.2468 132.293 34.7623 134.434 35.9021L134.785 35.2406L135.136 34.579C132.723 33.2942 129.973 32.7378 126.913 32.8836L126.951 33.6326ZM134.785 35.2406L134.439 35.9048C136.616 37.0423 138.333 38.7487 139.595 41.0491L140.252 40.6904L140.91 40.3318C139.513 37.7866 137.586 35.8597 135.131 34.5763L134.785 35.2406ZM140.252 40.6904L139.595 41.0491C140.857 43.3496 141.591 46.1881 141.766 49.5917L142.515 49.556L143.265 49.5203C143.081 45.9488 142.306 42.8769 140.91 40.3318L140.252 40.6904ZM142.515 49.556L141.766 49.5917L141.853 51.2773L142.602 51.2417L143.351 51.206L143.265 49.5203L142.515 49.556ZM142.602 51.2417L142.564 50.4926L120.53 51.5422L120.568 52.2912L120.607 53.0402L142.641 51.9907L142.602 51.2417ZM120.568 52.2912L119.823 52.3695C120.128 55.1784 121.015 57.3904 122.576 58.8875L123.095 58.3473L123.613 57.8071C122.395 56.6397 121.597 54.8143 121.314 52.2128L120.568 52.2912ZM123.095 58.3473L122.592 58.9022C124.189 60.3481 126.211 60.9891 128.586 60.8759L128.548 60.1269L128.509 59.3779C126.466 59.4752 124.853 58.9298 123.597 57.7924L123.095 58.3473ZM128.548 60.1269L128.586 60.8759C130.363 60.7913 131.876 60.3254 133.071 59.4257L132.619 58.8259L132.166 58.2262C131.267 58.9024 130.067 59.3038 128.509 59.3779L128.548 60.1269ZM132.619 58.8259L133.076 59.4223C134.298 58.488 135.109 57.2398 135.506 55.7088L134.78 55.5182L134.053 55.3277C133.737 56.5499 133.107 57.5068 132.162 58.2296L132.619 58.8259ZM134.78 55.5182L134.773 56.268L142.412 56.3703L142.42 55.6205L142.427 54.8707L134.787 54.7684L134.78 55.5182ZM142.42 55.6205L141.688 55.4515C141.029 58.3495 139.559 60.6604 137.272 62.4154L137.73 63.0109L138.188 63.6064C140.759 61.6339 142.416 59.0178 143.151 55.7895L142.42 55.6205ZM137.73 63.0109L137.267 62.4187C135.018 64.1701 132.196 65.1457 128.756 65.3095L128.795 66.0586L128.834 66.8076C132.526 66.6317 135.659 65.5755 138.192 63.6031L137.73 63.0109ZM120.311 47.2923L120.349 48.0413L134.709 47.3574L134.671 46.6084L134.632 45.8593L120.272 46.5433L120.311 47.2923ZM134.671 46.6084L135.416 46.5267C135.119 43.9083 134.257 41.8699 132.717 40.5604L132.232 41.1307L131.748 41.7011C132.89 42.6722 133.653 44.2856 133.925 46.69L134.671 46.6084ZM132.232 41.1307L132.726 40.5682C131.22 39.2456 129.363 38.652 127.215 38.7543L127.253 39.5033L127.292 40.2523C129.097 40.1663 130.559 40.6576 131.739 41.6933L132.232 41.1307ZM127.253 39.5033L127.215 38.7543C125.06 38.8569 123.256 39.6488 121.861 41.1442L122.41 41.6568L122.96 42.1694C124.068 40.9818 125.494 40.338 127.292 40.2523L127.253 39.5033ZM122.41 41.6568L121.853 41.1524C120.497 42.6506 119.758 44.7052 119.563 47.2319L120.311 47.2923L121.059 47.3528C121.237 45.0449 121.898 43.3425 122.967 42.1612L122.41 41.6568ZM156.718 62.7474L156.369 63.4098L156.378 63.4142L156.718 62.7474ZM151.135 57.303L150.484 57.674V57.674L151.135 57.303ZM150.258 40.2721L150.942 40.584L150.944 40.5795L150.258 40.2721ZM155.197 34.3266L154.782 33.7006L154.777 33.7037L155.197 34.3266ZM170.891 33.5208L170.541 34.1823L170.546 34.185L170.891 33.5208ZM176.359 38.9707L177.016 38.612V38.612L176.359 38.9707ZM178.708 49.5219L178.747 50.2709L179.496 50.2352L179.458 49.4862L178.708 49.5219ZM156.674 50.5714L156.636 49.8224L155.843 49.8601L155.929 50.6497L156.674 50.5714ZM159.201 56.6275L158.683 57.1677L158.69 57.1751L158.698 57.1824L159.201 56.6275ZM168.725 57.1061L169.178 57.7059L169.182 57.7025L168.725 57.1061ZM170.886 53.7984L170.893 53.0487L170.307 53.0408L170.16 53.6079L170.886 53.7984ZM178.526 53.9007L179.257 54.0697L179.464 53.1634L178.533 53.1509L178.526 53.9007ZM173.836 61.2911L173.378 60.6956L173.374 60.6989L173.836 61.2911ZM156.417 45.5725L155.669 45.5121L155.604 46.3621L156.456 46.3215L156.417 45.5725ZM170.777 44.8886L170.816 45.6376L171.612 45.5996L171.522 44.8069L170.777 44.8886ZM168.339 39.4109L167.845 39.9735L167.854 39.9813L168.339 39.4109ZM158.517 39.937L157.967 39.4244L157.96 39.4326L158.517 39.937ZM164.901 64.3388L164.863 63.5898C161.87 63.7323 159.277 63.2193 157.059 62.0806L156.718 62.7474L156.378 63.4142C158.869 64.6927 161.731 65.2406 164.94 65.0878L164.901 64.3388ZM156.718 62.7474L157.068 62.085C154.841 60.9064 153.083 59.1945 151.785 56.932L151.135 57.303L150.484 57.674C151.919 60.176 153.883 62.0937 156.369 63.4098L156.718 62.7474ZM151.135 57.303L151.785 56.932C150.488 54.67 149.746 51.9707 149.584 48.8114L148.835 48.8471L148.085 48.8828C148.258 52.2336 149.049 55.1716 150.484 57.674L151.135 57.303ZM148.835 48.8471L149.584 48.8114C149.421 45.6518 149.883 42.9167 150.942 40.5839L150.258 40.2721L149.575 39.9603C148.4 42.5508 147.913 45.5324 148.085 48.8828L148.835 48.8471ZM150.258 40.2721L150.944 40.5795C152.004 38.2014 153.561 36.3311 155.617 34.9494L155.197 34.3266L154.777 33.7037C152.478 35.2487 150.742 37.3421 149.573 39.9647L150.258 40.2721ZM155.197 34.3266L155.613 34.9525C157.703 33.5712 160.188 32.8003 163.096 32.6618L163.057 31.9128L163.019 31.1638C159.88 31.3133 157.126 32.1515 154.782 33.7006L155.197 34.3266ZM163.057 31.9128L163.096 32.6618C165.926 32.527 168.4 33.0425 170.541 34.1823L170.891 33.5208L171.242 32.8592C168.829 31.5745 166.08 31.018 163.019 31.1638L163.057 31.9128ZM170.891 33.5208L170.546 34.185C172.722 35.3225 174.439 37.0289 175.701 39.3293L176.359 38.9707L177.016 38.612C175.62 36.0668 173.692 34.14 171.237 32.8565L170.891 33.5208ZM176.359 38.9707L175.701 39.3293C176.963 41.6298 177.697 44.4683 177.873 47.8719L178.622 47.8362L179.371 47.8005C179.187 44.229 178.412 41.1571 177.016 38.612L176.359 38.9707ZM178.622 47.8362L177.873 47.8719L177.959 49.5575L178.708 49.5219L179.458 49.4862L179.371 47.8005L178.622 47.8362ZM178.708 49.5219L178.67 48.7729L156.636 49.8224L156.674 50.5714L156.713 51.3204L178.747 50.2709L178.708 49.5219ZM156.674 50.5714L155.929 50.6497C156.235 53.4586 157.121 55.6706 158.683 57.1677L159.201 56.6275L159.719 56.0873C158.501 54.9199 157.704 53.0945 157.42 50.493L156.674 50.5714ZM159.201 56.6275L158.698 57.1824C160.295 58.6283 162.317 59.2693 164.693 59.1561L164.654 58.4071L164.616 57.6581C162.572 57.7555 160.959 57.21 159.703 56.0726L159.201 56.6275ZM164.654 58.4071L164.693 59.1561C166.469 59.0716 167.982 58.6056 169.178 57.7059L168.725 57.1061L168.273 56.5064C167.374 57.1826 166.173 57.584 164.616 57.6581L164.654 58.4071ZM168.725 57.1061L169.182 57.7025C170.405 56.7682 171.216 55.52 171.612 53.989L170.886 53.7984L170.16 53.6079C169.843 54.8301 169.214 55.787 168.268 56.5098L168.725 57.1061ZM170.886 53.7984L170.879 54.5482L178.519 54.6505L178.526 53.9007L178.533 53.1509L170.893 53.0487L170.886 53.7984ZM178.526 53.9007L177.794 53.7317C177.135 56.6297 175.666 58.9406 173.378 60.6956L173.836 61.2911L174.294 61.8866C176.865 59.9141 178.523 57.298 179.257 54.0697L178.526 53.9007ZM173.836 61.2911L173.374 60.6989C171.125 62.4503 168.302 63.4259 164.863 63.5898L164.901 64.3388L164.94 65.0878C168.632 64.9119 171.766 63.8557 174.298 61.8833L173.836 61.2911ZM156.417 45.5725L156.456 46.3215L170.816 45.6376L170.777 44.8886L170.738 44.1395L156.379 44.8235L156.417 45.5725ZM170.777 44.8886L171.522 44.8069C171.226 42.1885 170.363 40.1502 168.824 38.8406L168.339 39.4109L167.854 39.9813C168.996 40.9524 169.759 42.5658 170.032 44.9702L170.777 44.8886ZM168.339 39.4109L168.833 38.8484C167.326 37.5258 165.469 36.9322 163.321 37.0345L163.359 37.7835L163.398 38.5325C165.203 38.4465 166.665 38.9378 167.845 39.9735L168.339 39.4109ZM163.359 37.7835L163.321 37.0345C161.166 37.1371 159.363 37.929 157.967 39.4244L158.517 39.937L159.066 40.4497C160.174 39.262 161.6 38.6182 163.398 38.5325L163.359 37.7835ZM158.517 39.937L157.96 39.4326C156.603 40.9308 155.864 42.9854 155.669 45.5121L156.417 45.5725L157.165 45.633C157.343 43.3251 158.004 41.6227 159.074 40.4414L158.517 39.937ZM187.542 62.5611L186.793 62.5968L186.831 63.3458L187.58 63.3101L187.542 62.5611ZM185.944 31.5219L185.906 30.7728L185.157 30.8085L185.195 31.5575L185.944 31.5219ZM192.688 31.2006L193.436 31.14L193.374 30.4171L192.65 30.4516L192.688 31.2006ZM193.428 39.9057L193.185 40.6144L194.272 40.9896L194.175 39.8451L193.428 39.9057ZM192.538 39.5985L191.791 39.5279L191.737 40.1146L192.295 40.3072L192.538 39.5985ZM194.187 34.2757L193.56 33.8608V33.8608L194.187 34.2757ZM197.584 31.2005L197.244 30.5306V30.5306L197.584 31.2005ZM207.962 31.2889L207.586 31.9364L207.593 31.9405L207.962 31.2889ZM211.782 35.3023L211.116 35.6458L211.119 35.6513L211.782 35.3023ZM214.343 61.2845L214.382 62.0335L215.131 61.9979L215.092 61.2489L214.343 61.2845ZM206.902 61.639L206.152 61.6747L206.191 62.4237L206.94 62.388L206.902 61.639ZM205.247 39.6923L205.956 39.4492V39.4492L205.247 39.6923ZM203.363 37.0435L202.907 37.6373L202.923 37.6495L202.939 37.6609L203.363 37.0435ZM195.513 38.5245L194.92 38.0627L194.913 38.0724L195.513 38.5245ZM194.983 62.2067L195.022 62.9557L195.771 62.92L195.733 62.171L194.983 62.2067ZM187.542 62.5611L188.291 62.5254L186.693 31.4862L185.944 31.5219L185.195 31.5575L186.793 62.5968L187.542 62.5611ZM185.944 31.5219L185.983 32.2709L192.727 31.9496L192.688 31.2006L192.65 30.4516L185.906 30.7728L185.944 31.5219ZM192.688 31.2006L191.941 31.2613L192.68 39.9663L193.428 39.9057L194.175 39.8451L193.436 31.14L192.688 31.2006ZM193.428 39.9057L193.67 39.197L192.78 38.8898L192.538 39.5985L192.295 40.3072L193.185 40.6144L193.428 39.9057ZM192.538 39.5985L193.285 39.6691C193.476 37.5672 193.999 35.9223 194.813 34.6907L194.187 34.2757L193.56 33.8608C192.572 35.3565 191.996 37.2602 191.791 39.5279L192.538 39.5985ZM194.187 34.2757L194.813 34.6907C195.648 33.4276 196.684 32.4942 197.923 31.8705L197.584 31.2005L197.244 30.5306C195.756 31.2798 194.528 32.3965 193.56 33.8608L194.187 34.2757ZM197.584 31.2005L197.923 31.8705C199.185 31.2353 200.596 30.8756 202.167 30.8008L202.129 30.0518L202.09 29.3027C200.328 29.3867 198.709 29.7928 197.244 30.5306L197.584 31.2005ZM202.129 30.0518L202.167 30.8008C204.343 30.6971 206.136 31.0915 207.586 31.9363L207.962 31.2889L208.338 30.6414C206.583 29.619 204.487 29.1886 202.09 29.3027L202.129 30.0518ZM207.962 31.2889L207.593 31.9405C209.102 32.7974 210.275 34.0255 211.116 35.6458L211.782 35.3023L212.447 34.9587C211.477 33.0915 210.104 31.644 208.331 30.6372L207.962 31.2889ZM211.782 35.3023L211.119 35.6513C211.962 37.2413 212.453 39.145 212.568 41.383L213.317 41.3473L214.066 41.3117C213.942 38.8996 213.409 36.7732 212.444 34.9532L211.782 35.3023ZM213.317 41.3473L212.568 41.383L213.594 61.3202L214.343 61.2845L215.092 61.2489L214.066 41.3117L213.317 41.3473ZM214.343 61.2845L214.305 60.5355L206.863 60.89L206.902 61.639L206.94 62.388L214.382 62.0335L214.343 61.2845ZM206.902 61.639L207.651 61.6033L206.747 44.0493L205.998 44.085L205.249 44.1206L206.152 61.6747L206.902 61.639ZM205.998 44.085L206.747 44.0493C206.655 42.2604 206.397 40.7213 205.956 39.4492L205.247 39.6923L204.539 39.9354C204.919 41.0326 205.161 42.422 205.249 44.1206L205.998 44.085ZM205.247 39.6923L205.956 39.4492C205.505 38.1471 204.792 37.1172 203.786 36.426L203.363 37.0435L202.939 37.6609C203.625 38.1322 204.169 38.8682 204.539 39.9354L205.247 39.6923ZM203.363 37.0435L203.818 36.4496C202.831 35.6904 201.576 35.3872 200.134 35.4558L200.172 36.2048L200.211 36.9539C201.404 36.897 202.277 37.1528 202.907 37.6373L203.363 37.0435ZM200.172 36.2048L200.134 35.4558C197.957 35.5595 196.194 36.4246 194.92 38.0627L195.513 38.5245L196.106 38.9862C197.091 37.7198 198.434 37.0385 200.211 36.9539L200.172 36.2048ZM195.513 38.5245L194.913 38.0724C193.678 39.7139 193.19 41.9551 193.331 44.6883L194.08 44.6526L194.829 44.6169C194.698 42.08 195.166 40.2358 196.113 38.9765L195.513 38.5245ZM194.08 44.6526L193.331 44.6883L194.234 62.2424L194.983 62.2067L195.733 62.171L194.829 44.6169L194.08 44.6526ZM194.983 62.2067L194.945 61.4577L187.503 61.8121L187.542 62.5611L187.58 63.3101L195.022 62.9557L194.983 62.2067Z" fill="white"/>
</svg>
