<svg width="97" height="52" viewBox="0 0 97 52" fill="none" xmlns="http://www.w3.org/2000/svg">
<defs>
  <style>
    @keyframes sparkle-pulse {
      0%, 100% { opacity: 1; transform: scale(1); }
      50% { opacity: 0.3; transform: scale(0.7); }
    }
    @keyframes sparkle-spin {
      0% { transform: rotate(0deg) scale(1); opacity: 1; }
      25% { transform: rotate(22deg) scale(1.18); opacity: 1; }
      50% { transform: rotate(0deg) scale(0.88); opacity: 0.55; }
      75% { transform: rotate(-18deg) scale(1.12); opacity: 1; }
      100% { transform: rotate(0deg) scale(1); opacity: 1; }
    }
    @keyframes cross-blink {
      0%, 100% { opacity: 1; }
      30% { opacity: 0.15; }
      60% { opacity: 0.85; }
    }
    .sparkle-small {
      transform-origin: 13.87px 20.51px;
      transform-box: fill-box;
      animation: sparkle-pulse 2.1s ease-in-out infinite;
    }
    .sparkle-main {
      transform-origin: 21.42px 25.61px;
      transform-box: fill-box;
      animation: sparkle-spin 3.4s ease-in-out infinite;
    }
    .sparkle-cross {
      transform-origin: 14.30px 32.21px;
      transform-box: fill-box;
      animation: cross-blink 1.7s ease-in-out infinite;
    }
  </style>
  <clipPath id="clip0_4684_134">
    <rect width="96.4889" height="52" fill="white"></rect>
  </clipPath>
  <clipPath id="clip1_4684_134">
    <rect x="2.60779" y="3.4668" width="91.4739" height="45.0667" rx="22.5333" fill="white"></rect>
  </clipPath>
  <filter id="filter0_f_4684_134" x="-27.5524" y="3.35181" width="156.809" height="140.92" filterUnits="userSpaceOnUse" color-interpolation-filters="sRGB">
    <feFlood flood-opacity="0" result="BackgroundImageFix"></feFlood>
    <feBlend mode="normal" in="SourceGraphic" in2="BackgroundImageFix" result="shape"></feBlend>
    <feGaussianBlur stdDeviation="11.9022" result="effect1_foregroundBlur_4684_134"></feGaussianBlur>
  </filter>
  <linearGradient id="paint0_linear_4684_134" x1="13.8665" y1="17.6221" x2="13.8665" y2="23.3998" gradientUnits="userSpaceOnUse">
    <stop stop-color="#00A4FC"></stop>
    <stop offset="1" stop-color="white"></stop>
  </linearGradient>
  <linearGradient id="paint1_linear_4684_134" x1="9.12731" y1="8.52236" x2="90.5965" y2="26.672" gradientUnits="userSpaceOnUse">
    <stop offset="0.835" stop-color="#00A3FF" stop-opacity="0.71"></stop>
    <stop offset="1" stop-color="white"></stop>
  </linearGradient>
</defs>

<g clip-path="url(#clip0_4684_134)">
  <rect width="96.4889" height="52" rx="26" fill="#003654"></rect>
  <g clip-path="url(#clip1_4684_134)">
    <rect x="2.6001" y="3.4668" width="91.5778" height="45.0667" rx="22.5333" fill="#007FC7"></rect>
    <g filter="url(#filter0_f_4684_134)">
      <ellipse cx="50.8521" cy="73.8118" rx="54.6" ry="46.6556" fill="#015585" fill-opacity="0.72"></ellipse>
    </g>

    <!-- Numbers / text -->
    <path d="M41.6808 23.1451L38.2522 32.5996H36.2826L32.8479 23.1451H34.8237L37.2182 30.4206H37.3166L39.7049 23.1451H41.6808ZM43.3858 32.5996V31.2208L47.6514 26.8013C48.1069 26.3212 48.4824 25.9006 48.7778 25.5395C49.0774 25.1743 49.301 24.8275 49.4487 24.4992C49.5965 24.1709 49.6703 23.8221 49.6703 23.4528C49.6703 23.0343 49.5719 22.6732 49.3749 22.3695C49.1779 22.0617 48.9091 21.8258 48.5685 21.6616C48.2279 21.4934 47.8443 21.4093 47.4175 21.4093C46.9661 21.4093 46.5722 21.5016 46.2357 21.6863C45.8992 21.8709 45.6407 22.1315 45.4601 22.468C45.2796 22.8045 45.1893 23.1984 45.1893 23.6498H43.3735C43.3735 22.8824 43.5499 22.2115 43.9028 21.637C44.2557 21.0625 44.7399 20.6173 45.3555 20.3013C45.971 19.9812 46.6707 19.8212 47.4544 19.8212C48.2464 19.8212 48.944 19.9792 49.5472 20.2952C50.1546 20.607 50.6285 21.0338 50.9691 21.5755C51.3097 22.113 51.48 22.7203 51.48 23.3974C51.48 23.8652 51.3918 24.3228 51.2153 24.7701C51.043 25.2173 50.7414 25.7159 50.3105 26.2658C49.8796 26.8116 49.2805 27.4743 48.5131 28.254L46.0079 30.8761V30.9685H51.6831V32.5996H43.3858ZM55.2532 32.7166C54.9167 32.7166 54.6274 32.5976 54.3853 32.3596C54.1432 32.1174 54.0221 31.8261 54.0221 31.4855C54.0221 31.149 54.1432 30.8618 54.3853 30.6238C54.6274 30.3816 54.9167 30.2606 55.2532 30.2606C55.5897 30.2606 55.879 30.3816 56.1211 30.6238C56.3632 30.8618 56.4843 31.149 56.4843 31.4855C56.4843 31.7112 56.4268 31.9184 56.3119 32.1072C56.2011 32.2918 56.0534 32.4396 55.8687 32.5504C55.6841 32.6612 55.4789 32.7166 55.2532 32.7166ZM62.8565 32.8089C61.884 32.8048 61.053 32.5483 60.3636 32.0395C59.6742 31.5306 59.1469 30.79 58.7817 29.8174C58.4165 28.8449 58.2339 27.6733 58.2339 26.3027C58.2339 24.9363 58.4165 23.7688 58.7817 22.8004C59.151 21.8319 59.6804 21.0933 60.3698 20.5845C61.0633 20.0756 61.8922 19.8212 62.8565 19.8212C63.8209 19.8212 64.6477 20.0777 65.3371 20.5906C66.0265 21.0995 66.5538 21.8381 66.919 22.8065C67.2884 23.7709 67.473 24.9363 67.473 26.3027C67.473 27.6774 67.2904 28.851 66.9252 29.8236C66.56 30.792 66.0327 31.5327 65.3433 32.0456C64.6539 32.5545 63.825 32.8089 62.8565 32.8089ZM62.8565 31.1654C63.7101 31.1654 64.3769 30.7489 64.857 29.9159C65.3412 29.0829 65.5833 27.8785 65.5833 26.3027C65.5833 25.2563 65.4725 24.372 65.2509 23.6498C65.0335 22.9235 64.7195 22.3736 64.3092 22.0002C63.9029 21.6227 63.4187 21.4339 62.8565 21.4339C62.0071 21.4339 61.3403 21.8524 60.8561 22.6896C60.3718 23.5267 60.1277 24.7311 60.1236 26.3027C60.1236 27.3532 60.2323 28.2417 60.4498 28.968C60.6714 29.6902 60.9853 30.238 61.3916 30.6114C61.7978 30.9808 62.2861 31.1654 62.8565 31.1654ZM70.4368 32.7166C70.1003 32.7166 69.811 32.5976 69.5689 32.3596C69.3268 32.1174 69.2057 31.8261 69.2057 31.4855C69.2057 31.149 69.3268 30.8618 69.5689 30.6238C69.811 30.3816 70.1003 30.2606 70.4368 30.2606C70.7733 30.2606 71.0626 30.3816 71.3047 30.6238C71.5468 30.8618 71.6679 31.149 71.6679 31.4855C71.6679 31.7112 71.6104 31.9184 71.4955 32.1072C71.3847 32.2918 71.237 32.4396 71.0523 32.5504C70.8677 32.6612 70.6625 32.7166 70.4368 32.7166ZM78.0401 32.8089C77.0676 32.8048 76.2366 32.5483 75.5472 32.0395C74.8578 31.5306 74.3305 30.79 73.9653 29.8174C73.6001 28.8449 73.4175 27.6733 73.4175 26.3027C73.4175 24.9363 73.6001 23.7688 73.9653 22.8004C74.3346 21.8319 74.864 21.0933 75.5534 20.5845C76.2469 20.0756 77.0758 19.8212 78.0401 19.8212C79.0045 19.8212 79.8313 20.0777 80.5207 20.5906C81.2101 21.0995 81.7374 21.8381 82.1026 22.8065C82.4719 23.7709 82.6566 24.9363 82.6566 26.3027C82.6566 27.6774 82.474 28.851 82.1088 29.8236C81.7436 30.792 81.2163 31.5327 80.5269 32.0456C79.8375 32.5545 79.0086 32.8089 78.0401 32.8089ZM78.0401 31.1654C78.8937 31.1654 79.5605 30.7489 80.0406 29.9159C80.5248 29.0829 80.7669 27.8785 80.7669 26.3027C80.7669 25.2563 80.6561 24.372 80.4345 23.6498C80.2171 22.9235 79.9031 22.3736 79.4928 22.0002C79.0865 21.6227 78.6023 21.4339 78.0401 21.4339C77.1907 21.4339 76.5239 21.8524 76.0397 22.6896C75.5554 23.5267 75.3113 24.7311 75.3072 26.3027C75.3072 27.3532 75.4159 28.2417 75.6334 28.968C75.855 29.6902 76.1689 30.238 76.5752 30.6114C76.9814 30.9808 77.4697 31.1654 78.0401 31.1654Z" fill="white"></path>

    <!-- Sparkle pequeño: pulso suave -->
    <g class="sparkle-small">
      <path d="M13.6225 23.305C13.6894 23.3663 13.7769 23.4002 13.8676 23.3998C13.958 23.3996 14.0449 23.3655 14.1114 23.3043C14.1778 23.2431 14.2189 23.1591 14.2264 23.0691C14.3124 22.5097 14.5767 21.9931 14.98 21.5961C15.3833 21.1992 15.904 20.9432 16.4645 20.8664C16.5465 20.8502 16.6203 20.806 16.6734 20.7414C16.7264 20.6768 16.7554 20.5958 16.7554 20.5121C16.7554 20.4285 16.7264 20.3475 16.6734 20.2829C16.6203 20.2183 16.5465 20.1741 16.4645 20.1579C15.9028 20.0839 15.3806 19.8289 14.9768 19.4315C14.5729 19.034 14.3095 18.5158 14.2264 17.9552C14.2194 17.8646 14.1784 17.7799 14.1117 17.7181C14.045 17.6564 13.9574 17.6221 13.8665 17.6221C13.7756 17.6221 13.6881 17.6564 13.6214 17.7181C13.5547 17.7799 13.5137 17.8646 13.5067 17.9552C13.4207 18.5146 13.1564 19.0312 12.7531 19.4282C12.3498 19.8251 11.8291 20.081 11.2686 20.1579C11.1866 20.1741 11.1128 20.2183 11.0597 20.2829C11.0067 20.3475 10.9777 20.4285 10.9777 20.5121C10.9777 20.5958 11.0067 20.6768 11.0597 20.7414C11.1128 20.806 11.1866 20.8502 11.2686 20.8664C11.8303 20.9404 12.3525 21.1954 12.7563 21.5928C13.1602 21.9903 13.4236 22.5085 13.5067 23.0691C13.5143 23.1595 13.5556 23.2437 13.6225 23.305Z" fill="url(#paint0_linear_4684_134)"></path>
    </g>

    <!-- Sparkle principal de 4 puntas: rotación + escala -->
    <g class="sparkle-main">
      <path d="M21.4157 33.5121C21.3318 33.5123 21.251 33.4811 21.1894 33.4245C21.1278 33.368 21.0901 33.2905 21.0838 33.2075C21.0652 32.9648 20.5638 27.2442 14.7039 25.9292C14.6303 25.9129 14.5644 25.8722 14.5172 25.8137C14.4701 25.7553 14.4443 25.6827 14.4443 25.6078C14.4443 25.5329 14.4701 25.4602 14.5172 25.4018C14.5644 25.3434 14.6303 25.3027 14.7039 25.2863C20.5761 23.969 21.0792 18.0683 21.0835 18.0081C21.0899 17.9251 21.1278 17.8477 21.1894 17.7913C21.251 17.7349 21.3319 17.7038 21.4157 17.7041C21.4996 17.7039 21.5805 17.7352 21.6421 17.7918C21.7037 17.8484 21.7414 17.926 21.7476 18.0091C21.7662 18.2518 22.2676 23.9723 28.1275 25.2873C28.2011 25.3036 28.267 25.3444 28.3141 25.4028C28.3613 25.4612 28.3871 25.5339 28.3871 25.6088C28.3871 25.6836 28.3613 25.7563 28.3141 25.8147C28.267 25.8732 28.2011 25.9139 28.1275 25.9302C22.2553 27.2475 21.7522 33.1482 21.7479 33.2085C21.7414 33.2913 21.7035 33.3687 21.6419 33.425C21.5803 33.4813 21.4995 33.5124 21.4157 33.5121Z" fill="white"></path>
    </g>

    <!-- Grupo de cruces: parpadeo -->
    <g class="sparkle-cross">
      <path d="M13.9529 31.5774C14.045 31.6695 14.1699 31.7213 14.3002 31.7213C14.4304 31.7213 14.5553 31.6695 14.6474 31.5774C14.7395 31.4853 14.7913 31.3604 14.7913 31.2302V30.2479C14.7913 30.1177 14.7395 29.9928 14.6474 29.9007C14.5553 29.8086 14.4304 29.7568 14.3002 29.7568C14.1699 29.7568 14.045 29.8086 13.9529 29.9007C13.8608 29.9928 13.809 30.1177 13.809 30.2479V31.2302C13.809 31.3604 13.8608 31.4853 13.9529 31.5774Z" fill="#F6F3FF"></path>
      <path d="M12.3357 32.7035H13.3179C13.4482 32.7035 13.5731 32.6518 13.6652 32.5597C13.7573 32.4676 13.809 32.3426 13.809 32.2124C13.809 32.0821 13.7573 31.9572 13.6652 31.8651C13.5731 31.773 13.4482 31.7213 13.3179 31.7213H12.3357C12.2055 31.7213 12.0805 31.773 11.9884 31.8651C11.8963 31.9572 11.8446 32.0821 11.8446 32.2124C11.8446 32.3426 11.8963 32.4676 11.9884 32.5597C12.0805 32.6518 12.2055 32.7035 12.3357 32.7035Z" fill="#F6F3FF"></path>
      <path d="M13.9529 34.5241C14.045 34.6162 14.1699 34.6679 14.3002 34.6679C14.4304 34.6679 14.5553 34.6162 14.6474 34.5241C14.7395 34.432 14.7913 34.3071 14.7913 34.1768V33.1946C14.7913 33.0644 14.7395 32.9394 14.6474 32.8473C14.5553 32.7552 14.4304 32.7035 14.3002 32.7035C14.1699 32.7035 14.045 32.7552 13.9529 32.8473C13.8608 32.9394 13.809 33.0644 13.809 33.1946V34.1768C13.809 34.3071 13.8608 34.432 13.9529 34.5241Z" fill="#F6F3FF"></path>
      <path d="M15.2824 32.7035H16.2646C16.3949 32.7035 16.5198 32.6518 16.6119 32.5597C16.704 32.4676 16.7557 32.3426 16.7557 32.2124C16.7557 32.0821 16.704 31.9572 16.6119 31.8651C16.5198 31.773 16.3949 31.7213 16.2646 31.7213H15.2824C15.1521 31.7213 15.0272 31.773 14.9351 31.8651C14.843 31.9572 14.7913 32.0821 14.7913 32.2124C14.7913 32.3426 14.843 32.4676 14.9351 32.5597C15.0272 32.6518 15.1521 32.7035 15.2824 32.7035Z" fill="#F6F3FF"></path>
    </g>

  </g>
  <rect x="3.60779" y="4.4668" width="89.4739" height="43.0667" rx="21.5333" stroke="url(#paint1_linear_4684_134)" stroke-width="2"></rect>
</g>
</svg>