<svg width="60" height="55" viewBox="0 0 60 55" fill="none" xmlns="http://www.w3.org/2000/svg">
<path d="M12.7015 27.2913C13.0227 27.5856 13.4429 27.7482 13.8785 27.7467C14.3123 27.7456 14.73 27.5818 15.049 27.2878C15.368 26.9937 15.5652 26.5906 15.6016 26.1582C16.0144 23.4719 17.2836 20.9908 19.2204 19.0847C21.1571 17.1785 23.6577 15.9493 26.3495 15.5802C26.7432 15.5023 27.0978 15.2901 27.3526 14.9799C27.6074 14.6696 27.7467 14.2806 27.7467 13.879C27.7467 13.4775 27.6074 13.0884 27.3526 12.7782C27.0978 12.468 26.7432 12.2558 26.3495 12.1779C23.6522 11.8225 21.1441 10.5979 19.2049 8.68921C17.2656 6.78055 16.0007 4.2919 15.6016 1.59988C15.5679 1.16451 15.3711 0.757925 15.0507 0.461337C14.7303 0.164748 14.3099 0 13.8733 0C13.4368 0 13.0163 0.164748 12.6959 0.461337C12.3755 0.757925 12.1788 1.16451 12.145 1.59988C11.7323 4.28623 10.463 6.76728 8.52628 8.67343C6.58954 10.5796 4.089 11.8088 1.3972 12.1779C1.00344 12.2558 0.648906 12.468 0.394098 12.7782C0.139289 13.0884 0 13.4775 0 13.879C0 14.2806 0.139289 14.6696 0.394098 14.9799C0.648906 15.2901 1.00344 15.5023 1.3972 15.5802C4.09444 15.9356 6.60252 17.1602 8.54179 19.0689C10.4811 20.9775 11.746 23.4662 12.145 26.1582C12.1816 26.5924 12.3803 26.997 12.7015 27.2913Z" fill="white"/>
<path d="M43.1066 43.602C42.9099 43.6025 42.7202 43.528 42.5758 43.3934C42.4314 43.2588 42.343 43.074 42.3282 42.8763C42.2846 42.2981 41.1085 28.6713 27.3647 25.5388C27.192 25.4999 27.0375 25.4029 26.9269 25.2637C26.8162 25.1245 26.7559 24.9515 26.7559 24.7731C26.7559 24.5947 26.8162 24.4217 26.9269 24.2825C27.0375 24.1433 27.192 24.0463 27.3647 24.0074C41.1373 20.8694 42.3173 6.81347 42.3274 6.6699C42.3426 6.47235 42.4313 6.28788 42.5758 6.15356C42.7204 6.01924 42.91 5.94502 43.1066 5.94581C43.3034 5.94526 43.4931 6.0199 43.6376 6.15469C43.782 6.28948 43.8704 6.47441 43.8849 6.67226C43.9285 7.25044 45.1047 20.8773 58.8484 24.0098C59.0212 24.0486 59.1756 24.1457 59.2863 24.2848C59.397 24.424 59.4573 24.5971 59.4573 24.7755C59.4573 24.9538 59.397 25.1269 59.2863 25.2661C59.1756 25.4053 59.0212 25.5023 58.8484 25.5411C45.0759 28.6792 43.8958 42.7351 43.8857 42.8787C43.8704 43.0761 43.7816 43.2604 43.6371 43.3945C43.4925 43.5287 43.303 43.6028 43.1066 43.602ZM40.4888 33.8858C42.5758 22.5682 42.3274 25.2637 42.5758 20.0669C43.8438 15.7254 47.5877 21.7941 55.8719 24.7739C47.6406 21.8132 53.2254 24.0074 43.1066 22.5682C41.5211 28.4057 42.5758 24.2825 40.4888 33.8858Z" fill="#00A5FF"/>
<path d="M14.8788 41.4069C15.2691 41.7971 15.7984 42.0164 16.3503 42.0164C16.9022 42.0164 17.4315 41.7971 17.8218 41.4069C18.2121 41.0166 18.4313 40.4873 18.4313 39.9354V35.7734C18.4313 35.2215 18.2121 34.6922 17.8218 34.3019C17.4315 33.9116 16.9022 33.6924 16.3503 33.6924C15.7984 33.6924 15.2691 33.9116 14.8788 34.3019C14.4886 34.6922 14.2693 35.2215 14.2693 35.7734V39.9354C14.2693 40.4873 14.4886 41.0166 14.8788 41.4069Z" fill="white"/>
<path d="M8.02631 46.1784H12.1883C12.7402 46.1784 13.2695 45.9591 13.6598 45.5689C14.0501 45.1786 14.2693 44.6493 14.2693 44.0974C14.2693 43.5455 14.0501 43.0162 13.6598 42.6259C13.2695 42.2356 12.7402 42.0164 12.1883 42.0164H8.02631C7.4744 42.0164 6.94509 42.2356 6.55482 42.6259C6.16456 43.0162 5.94531 43.5455 5.94531 44.0974C5.94531 44.6493 6.16456 45.1786 6.55482 45.5689C6.94509 45.9591 7.4744 46.1784 8.02631 46.1784Z" fill="white"/>
<path d="M14.8788 53.8929C15.2691 54.2831 15.7984 54.5024 16.3503 54.5024C16.9022 54.5024 17.4315 54.2831 17.8218 53.8929C18.2121 53.5026 18.4313 52.9733 18.4313 52.4214V48.2594C18.4313 47.7075 18.2121 47.1782 17.8218 46.7879C17.4315 46.3976 16.9022 46.1784 16.3503 46.1784C15.7984 46.1784 15.2691 46.3976 14.8788 46.7879C14.4886 47.1782 14.2693 47.7075 14.2693 48.2594V52.4214C14.2693 52.9733 14.4886 53.5026 14.8788 53.8929Z" fill="white"/>
<path d="M20.5123 46.1784H24.6743C25.2262 46.1784 25.7555 45.9591 26.1458 45.5689C26.5361 45.1786 26.7553 44.6493 26.7553 44.0974C26.7553 43.5455 26.5361 43.0162 26.1458 42.6259C25.7555 42.2356 25.2262 42.0164 24.6743 42.0164H20.5123C19.9604 42.0164 19.4311 42.2356 19.0408 42.6259C18.6506 43.0162 18.4313 43.5455 18.4313 44.0974C18.4313 44.6493 18.6506 45.1786 19.0408 45.5689C19.4311 45.9591 19.9604 46.1784 20.5123 46.1784Z" fill="white"/>
</svg>
